<?xml version="1.0" encoding="UTF-8"?>
<svg width="800px" height="629px" viewBox="0 0 800 629" version="1.1" xmlns="http://www.w3.org/2000/svg" xmlns:xlink="http://www.w3.org/1999/xlink">
    <g id="Page-1" stroke="none" stroke-width="1" fill="none" fill-rule="evenodd">
        <g id="home" fill-rule="nonzero">
            <path d="M740.4,414.2 L792.8,401.5 C792.8,401.5 785.7,325.8 769.9,324.3 C754.1,322.8 738.8,328.7 740.4,414.2" id="Path" fill="#D1D3D4"></path>
            <path d="M248,554.6 L101.8,561.3 L93.2,536.4 L93.2,298.6 L70.3,294.6 C70.3,294.6 -3.2,190 1.4,162.4 C6,134.8 3.8,117.7 17.7,135.3 C31.6,152.9 51.5,204.4 51.5,204.4 C51.5,204.4 67.1,207.9 63.7,196 C60.3,184.1 30.9,119.5 38.1,83.6 C45.3,47.7 66.2,83.9 66.2,83.9 L91.2,177.4 C91.2,177.4 108.8,180.3 104.4,170.8 C100,161.3 88.7,57 110.9,43.6 C133.1,30.2 145.5,64.9 140.7,109.3 C135.9,153.7 137.4,174.9 137.4,174.9 C137.4,174.9 149.3,177.5 150.8,165.3 C152.3,153.1 157,91.9 183.5,83.6 C210,75.3 190.7,135.2 190.7,135.2 L165.3,214 L174.8,213.1 C174.8,213.1 218.1,153.8 243.7,155.5 C269.3,157.2 235.6,209 235.6,209 L156.4,296.5 L137.5,292.6 L133,513.2 C133,513.2 131.7,532.5 140.9,529.6 C150.1,526.7 252.1,527.7 252.1,527.7 L248,554.6" id="Path" fill="#F7E353"></path>
            <ellipse id="Oval" fill="#D1D3D4" transform="translate(669.744970, 271.777190) rotate(-8.632471) translate(-669.744970, -271.777190) " cx="669.74497" cy="271.77719" rx="15.0004327" ry="11.4003289"></ellipse>
            <path d="M524.8,19.8 C527,18.4 529.3,19.1 530.1,21.8 C531.8,27 532.7,32.4 531.6,38 C531,41.4 530.8,44.9 531,48.4 C531,49.1 530.9,49.9 530.8,50.6 C530.6,54.2 531.3,57.9 532.7,61.2 C533.2,62.7 534.5,63.9 536,64.3 C537.6,64.8 538.2,64.7 539.2,63.2 C541.3,60.1 542.8,56.7 543.8,53.1 C543.9,52.8 543.8,52.2 544,52.2 C545.5,51.4 544.7,49.9 545.3,48.8 C545.9,47.7 546.1,46.1 546.6,44.8 C547.8,41.2 549.3,37.7 551.2,34.4 C551.8,33.4 552.3,32.4 552.8,31.3 C553.8,28.5 556.6,28 558.7,30.1 C561.7,33.1 562.6,36.7 562.3,40.8 C561.9,47 561.5,53.2 560.7,59.4 C560.2,62.6 559.6,65.8 558.9,68.9 C558.2,71.5 558.1,74.3 558.7,77 C560.4,83.1 563,86.1 569.7,87 C572.8,87.3 575.8,87.3 578.9,87 C580.7,86.8 581,86.5 581.1,85 C581.2,80.7 582.1,76.5 582.1,72.1 C582,69.5 582.2,67 582.6,64.4 C583.1,62 582.4,59.5 581.9,57.3 C581.3,54.5 581.9,51.5 580.6,48.8 C580.1,47.6 581.4,46 582.9,45.9 C584.4,45.8 586,45.2 587.5,45.1 C590.3,45 593.2,44.5 596,45.7 C598.1,46.6 600.2,47.2 602.3,47.8 C603.2,48 604,48.5 604.5,49.3 C605.8,51.1 606.7,53.2 607.2,55.4 C607.4,57 607.8,58.6 608.4,60 C609.2,61.8 608.7,63.8 609,65.7 C610,72.1 607.3,77.7 604.2,83 C603.1,84.6 601.7,85.9 600.1,86.9 C599.7,87.2 599.2,87.3 598.7,87.3 C595.5,87.1 592.7,88.2 589.8,89.3 C588.6,89.6 587.4,89.8 586.1,89.7 C584.9,89.7 584.4,90.1 584.3,91.4 C583.9,96.6 583.7,101.7 583.6,106.9 C583.6,113.6 583.4,120.3 582.7,127 C582.4,129.3 582.6,131.7 582.3,133.9 C581.9,137.3 581.9,140.7 581.5,144 C581,147.8 580.6,151.6 580.2,155.4 C580,157.9 580.7,160.4 580.5,162.9 C580,168.3 581,173.7 580.6,179 C580.5,180.7 581.3,182.4 580.5,184.1 C579.7,185.8 580.9,187.3 580.2,188.9 C579.8,189.9 581.2,191.2 579.8,192.3 C579.5,192.5 580.3,192.9 580.4,193.2 C580.7,194.1 581.5,195.1 580.1,195.7 C579.6,195.9 579.5,196.5 579.7,197 C579.7,197 579.7,197 579.7,197.1 C580.1,198.2 579.2,199.3 579.9,200.4 C580.3,201 579.4,201 579.1,201.4 C580.3,202.5 579.2,203.8 579.4,204.8 C579.4,205.6 579.4,206.3 579.2,207.1 C579.1,208.9 579.2,210.7 579.6,212.4 C580.2,215 579.7,217.7 579.6,220.3 C579.6,223.7 580,227.2 580.6,230.6 C580.7,231.2 580.9,231.7 581,232.3 C581.6,235.4 580.2,237.1 576.9,237 C576.7,237 576.4,236.9 576.2,236.9 C572.9,236.5 569.5,236.7 566.2,237.5 C565.8,237.6 565.4,237.7 565,237.7 C561.5,237.5 557.9,238.2 554.3,237.7 C552.6,237.6 551,237.7 549.4,238.1 C547.3,238.3 545.3,238.7 543.2,238.9 C540.3,239.2 538.9,237.4 539.8,234.6 C540.1,233.5 541,232.6 540.7,231.3 C541.9,231.3 541.5,230.4 541.4,229.8 C541.1,228.4 539.8,227 541.1,225.4 C541.2,225.3 541.2,224 540.3,225 C540.2,225.1 539.8,224.9 539.8,224.6 C539.9,224.4 540,224.1 540.1,223.9 C541.4,222.1 540.2,220.3 540.1,218.5 C540,217.2 539.3,214.5 539.7,213.6 C539.9,212.9 539.9,212.2 539.9,211.5 C540,210 539.9,208.4 539.4,207 C539.1,205.6 539.2,204.2 539.6,202.9 C540,201 539.9,199.1 539.5,197.3 C539.1,196 538.9,194.6 539.1,193.3 C539.5,191.3 538.6,189.6 538,187.7 C535.8,188.1 534.3,189.8 532.2,190.4 C527.6,191.6 523.8,194.4 519.2,195.8 C515.8,196.8 512.4,197.8 509,198.6 C505.6,199.2 502.1,199.6 498.6,199.8 C496.4,200 494.1,200.2 491.9,200.7 C489.7,201.2 487.6,200.5 485.5,200.3 C481.4,199.8 477.3,199.2 473.2,198.9 C471.4,198.7 469.6,198.2 467.9,197.5 C464.9,196.4 461.7,196 459,193.9 C457.5,192.7 455.5,192.2 453.7,191.2 C448.7,188.3 444,185.1 440.7,180.3 C438,176.4 435.6,172.3 433.7,168 C431.9,164.3 430.5,160.4 429.4,156.4 C428.7,153 428.4,149.5 428.6,146 C428.7,142.9 428.7,139.7 428.8,136.5 C428.8,132.5 429.2,128.6 430,124.7 C431.1,119.5 432.6,114.5 433.8,109.3 C434.3,107.1 435.3,104.9 436,102.7 C438.1,95.1 443.5,90.1 449.8,86 C453.3,83.7 457.5,82.5 461.1,80.3 C461.8,80 462.5,79.8 463.3,79.8 C464.5,79.6 465.8,79.4 467,79.1 C471,77.8 475.2,77.1 479.5,76.9 C484,76.6 488.4,76 492.9,76.3 C494.2,76.5 495.6,76.3 496.8,75.9 C498.3,75.3 499.7,76.1 501.2,76.3 C502.9,76.5 504.5,76.6 506.2,76.6 C508,76.5 509.9,76.7 511.6,77.2 C512.9,77.6 514.3,77.9 515.7,78.1 C519.6,78.5 523,80.2 526.5,81.5 C527.8,82 529.2,82.3 530.6,82.4 C532.8,82.5 534.6,83.8 536.5,84.7 C539.1,86 541.6,87.6 544.3,88.9 C546.7,90.1 548.4,92.3 549.8,94.5 C552.3,98.4 554.5,102.5 557,106.4 C558.9,109.4 559.8,112.8 560.8,116.1 C563.3,123.9 564.6,132.1 564.6,140.3 C564.5,146.3 563.3,152.2 561.2,157.8 C560.1,160.8 559.1,163.7 558,166.7 C557.3,168.5 556.4,170.1 555.3,171.7 C553.4,174.6 550.9,176.9 548.8,179.5 C547,181.7 544.6,183.2 542.4,185 C541,186 540.4,187.7 540.8,189.3 C541.9,193.9 541.4,198.7 542.1,203.4 C542.9,209.5 542.9,215.6 543.4,221.7 C543.6,224 543.6,226.3 543.6,228.7 C543.7,230.6 544,232.5 544.5,234.3 C544.6,235 545.2,235.5 545.8,235.4 C547,235.5 548.3,235.5 549.5,235.4 C552.9,234.9 556.4,234.7 559.9,235 C562.2,235.1 564.6,234.8 566.8,234.2 C569.2,233.6 571.6,233 574,232.4 C576.1,231.9 576.3,231.8 576.6,229.7 C576.7,229.2 576.7,228.7 576.6,228.2 C575.9,223.2 575.8,218.1 576.2,213.1 C576.4,210.6 575.7,208.2 576,205.7 C576.2,203.6 575.9,201.4 575.9,199.3 C575.9,194.6 576.2,189.9 576.6,185.1 C577.1,180.2 577.3,175.4 577.1,170.5 C576.7,165.5 576.7,160.4 577.1,155.3 C577.4,152 577.9,148.7 578.1,145.4 C578.2,144.1 578.4,142.8 578.4,141.4 C578.5,136.6 578.8,131.8 579.4,127 C579.5,126.7 579.5,126.3 579.5,126 C579,121.7 580,117.4 580.1,113.1 C580.2,110.1 579.9,107 580,103.9 C580.1,100.2 580.3,96.4 580.5,92.7 C580.6,90.7 580.3,90.3 578.2,90.6 C573.3,91.4 568.5,90.9 563.6,90.6 C561.9,90.4 560.4,89.6 559.3,88.4 C556.6,85.7 554.8,82.5 554.9,78.4 C555,72.6 556.1,66.9 557.1,61.2 C557.8,57.5 558.2,53.8 558.4,50.1 C558.5,47.9 558.5,45.7 558.8,43.5 C558.9,41.4 558.8,39.3 558.5,37.3 C558.5,36.9 558.4,36.6 558.2,36.3 C557.4,35.2 557.2,33.3 555.6,33.2 C554,33.1 553.7,34.8 553.1,36 C551,39.5 548.7,43 547.9,47.2 C547.3,50.3 545.2,52.9 545.3,56.1 C543.4,59.9 542.1,63.9 539.5,67.3 C539.1,67.9 538.3,68.3 537.6,68.2 C536.1,68 534.6,68.3 533.3,67.2 C530.7,65.1 528.4,63.1 528,59.3 C527.5,55 527.9,50.7 528.1,46.5 C528.2,43.1 528.5,39.7 528.8,36.4 C529.1,33 528.7,29.6 527.6,26.4 C527.2,25.2 526.6,25.4 525.7,25.8 C524.1,26.6 523.3,28.1 522.2,29.3 C521.1,30.4 520.1,31.6 519.2,32.9 C517.2,35.7 516.2,39 514.9,42.1 C513.7,44.7 513,47.4 511.8,50 C510.2,53.5 507.6,56.1 504.9,58.7 C503.7,59.7 502.1,59.9 500.7,59.3 C495.9,57.6 493.6,54.2 493.3,49.2 C493,43.1 492.7,37 492.3,30.8 C492.1,27.2 491.7,23.7 491.5,20.2 C491.4,19.2 491.1,18.2 490.7,17.3 C489.6,14.9 485.8,14.5 484.5,17 C483.5,18.9 482.2,20.7 480.7,22.2 C480.4,22.5 480.2,22.9 480.1,23.3 C479.6,26.2 477.7,28.5 476.7,31.1 C475.7,33.7 475.1,36.7 474.2,39.4 C473.6,41.2 473.3,43.1 472.9,44.9 C472.2,48.3 470.4,51.2 469.3,54.4 C468.8,55.8 466.6,56.5 464.8,55.8 C462.8,55.2 461.1,53.8 460.4,51.8 C459.5,49.6 458.9,47.2 458.7,44.8 C458.4,40.1 457.1,35.7 456.3,31.1 C455.6,27 454.3,22.9 453.3,18.8 C452.9,17.1 452.8,15.4 452.5,13.7 C451.8,10.3 449.9,7.6 447.7,5.1 C446,3.4 443.3,3.3 441.6,5 C441.4,5.2 441.2,5.4 441.1,5.6 C437.7,10 434.4,14.6 432.6,20 C431.5,22.9 430.6,25.8 429.8,28.8 C428.6,34.3 427.1,39.7 426.3,45.3 C425.8,49.2 425,53.1 424.7,57.1 C424.7,57.8 424.6,58.6 424.4,59.3 C423.3,63.4 423.4,67.5 423,71.6 C422.8,74.8 422.4,78 421.8,81.2 C421.6,82.4 421.5,83.7 421.5,84.9 C421.2,89.4 420.9,93.8 420.6,98.3 C420.4,100.6 420.7,102.9 420.7,105.2 C420.6,108 420.8,110.8 420.6,113.6 C420.3,118.4 419.6,123.1 418.7,127.8 C418.2,130.9 416.7,133.7 414.5,136 C412.2,138.3 407.9,139.6 404.5,136.9 C401.2,134.3 398.3,131.1 396,127.6 C393.6,123.6 392.2,119.2 391.9,114.6 C391.6,110.8 391.4,107 390.9,103.2 C390.2,96.8 389.9,90.3 390.1,83.9 C390.1,80 388.6,78.6 385,78.3 C384.5,78.2 384,78.4 383.6,78.7 C380.7,81.5 378.6,84.9 377.3,88.6 C376.4,91.9 375.3,95.1 373.9,98.2 C373.8,98.4 373.7,98.6 373.6,98.9 C373.5,103.5 371.9,107.9 371.5,112.4 C371.3,114.6 370.9,116.8 370.2,119 C369.4,121.8 368.9,124.6 368.5,127.5 C367.7,131.9 366.5,136.3 364.9,140.5 C364.7,140.9 364.4,141.3 364,141.7 C362.9,143 361.3,143.8 359.9,144.9 C358.8,145.7 357.4,146 356.1,145.6 C353.4,144.9 350.7,144 348.8,141.6 C348.1,140.7 347.2,140.1 346.2,139.6 C345.4,143.6 344.6,147.4 343.9,151.2 C343.1,155.7 342.6,160.2 342.4,164.8 C342.3,167.1 341.6,169.5 341.2,171.9 C340.6,176.3 339.6,180.7 339.4,185.2 C339.3,188.2 338.3,190.8 337.5,193.6 C336.7,196.4 336.9,199.5 336.2,202.4 C335.6,204.8 335,207.2 334.3,209.5 C333.5,212.4 332.3,215.3 331.8,218.3 C331.3,221.9 330.6,225.5 329.9,229.1 C329.5,231.1 328.3,232.8 327.8,234.9 C327.6,235.9 327.2,236.9 326.9,238 C326.1,242 324.5,245.7 322.2,249 C321.7,249.8 321.3,250.6 321,251.5 C320,253.8 318.8,256.1 317.4,258.3 C316.7,259.1 316.3,260.2 316.3,261.2 C316.3,262.1 315.3,262.5 314.9,263.2 C313.7,265.2 312.1,267.1 311,269.1 C309.2,272.6 306.4,275.6 305.5,279.6 C305.4,280.2 305,280.7 304.5,281 C302.3,282 302.5,283.9 302.7,285.6 C302.9,286.9 302.8,288.2 302.5,289.5 C302.5,289.7 302.4,289.8 302.4,290 C302.7,294 302.5,298.1 303.4,302.1 C303.7,303.7 303.2,305.2 303.1,306.8 C302.9,309.3 303,311.8 303.2,314.3 C303.3,315 303.3,315.8 303.2,316.5 C302.8,319.7 303,323 304,326.1 C304.6,328 304,329.9 304.1,331.8 C304.5,335.6 303.9,339.4 304.3,343.2 C304.3,344.5 304.1,345.8 303.8,347.1 C303.4,349.7 303.3,352.4 303.7,355 C304.1,357.2 303.5,359.6 303.4,361.9 C303.2,367.4 303,373 302.3,378.5 C301.2,386 301.4,393.5 299.9,401 C299.6,402.5 299.9,404.1 299.5,405.7 C299.3,406.7 301,408 302.3,408.6 C305.6,409.9 309,409.6 312.4,409.5 C315.1,409.5 317.8,409 320.6,409 C322.1,409 323.6,409.2 325.1,409.3 C329,409.7 332.9,408.8 336.8,408.9 C337.7,408.9 338.6,408.4 338.9,407.5 C339.8,405.8 340.4,404 340.9,402.2 C341,401.7 340.9,401.1 341.5,400.9 C343.2,400.4 343.9,398.9 345.1,397.9 C347.5,395.7 350,396 352,398.6 C354,400.9 355.4,403.7 356.1,406.6 C356.8,409.8 356.7,413.2 355.7,416.3 C355.4,417.3 355.1,418.2 354.7,419.1 C354,420.6 353.4,422.2 351.3,422.1 C351,422.1 350.8,422.2 350.6,422.3 C348.1,424.1 345.9,423.2 343.8,421.6 C342.1,420.2 340,419.2 338.9,417.1 C338.3,416.3 338.1,415.4 338.3,414.4 C338.6,412.8 338.1,412.4 336.5,412.4 C335.3,412.4 334.2,412.4 333,412.6 C330.2,413 327.4,413 324.6,412.6 C321,412.1 317.5,413.1 313.9,412.8 C310.1,412.6 306.3,412.9 302.6,413.7 C301,414 299.3,413.9 297.7,414.2 C296,414.3 294.7,413 294.6,411.3 C294.6,410.9 294.7,410.5 294.8,410.1 C296,407.6 295.7,404.9 296.8,402.5 C297.1,401.8 296.8,401 297,400.3 C297.9,394.9 297.5,389.4 298.6,384.1 C299.4,380.2 299.1,376.2 299.6,372.2 C300,369.3 300.1,366.3 300.1,363.4 C300.1,362.4 301,361.4 299.8,360.5 C299.8,360.4 299.8,360.3 299.8,360.3 C301.2,358.9 300.8,357.2 300.7,355.5 C300.6,351.6 301.4,347.7 301.4,343.7 C301.3,339.3 301.9,334.9 301.4,330.5 C300.9,325.8 301.1,321.1 300.6,316.4 C300.4,314.7 300.3,312.9 300.4,311.2 C300.6,306.7 300.4,302.3 299.8,297.9 C299.7,297.4 299.7,296.9 299.8,296.4 C300.6,293.2 300.1,290 300.3,286.8 C300.3,286.1 300.3,285.3 300.3,284.5 C297.6,285.8 295,287.4 292.7,289.3 C291.1,290.6 288.8,291 286.7,291.6 C282.9,292.7 279.2,294.1 275.3,294.9 C271.4,295.7 267.2,296.1 263.4,294.2 C263.1,294 262.7,293.8 262.3,293.7 C255.6,292.2 251,287.9 247.6,282.3 C246.1,279.9 244.8,277.3 243.9,274.6 C243.8,274.4 243.8,274.1 243.8,273.9 C243.8,270.3 242.9,266.6 243.9,263 C244.1,262.4 244.1,261.9 244,261.3 C243.8,259.8 244.3,258.3 245.3,257.2 C247.3,254.9 248.5,252 250.1,249.4 C251.6,246.9 254,245.1 256.8,244.2 C259.6,243.2 262.3,241.9 265,240.8 C267,240 268.9,239 271.2,239.7 C271.7,239.8 272.2,239.8 272.7,239.8 C279.5,239.1 286.2,240.5 293,241 C294.8,241.1 296.6,241.2 298.5,241.4 C300.1,241.6 301.8,241.9 302.6,243.8 C303,244.5 303.1,245.4 302.9,246.2 C302.5,247.8 302.4,249.5 302.6,251.1 C302.7,255.4 302.5,259.7 302.5,264 C302.5,267.9 302.5,271.8 302.6,275.7 C302.6,276.2 302.7,276.6 303.1,276.9 C304.2,276.4 304.3,275.1 305,274.3 C308.4,270.7 310.5,266.2 313,262.1 C316.3,256.6 319.7,251 322.1,245 C322.9,243.1 323.5,241.1 324.1,239.1 C325.8,234 327.4,229 328.8,223.8 C329,222.7 329.1,221.5 329.2,220.4 C329.8,216.3 331.3,212.4 332.5,208.4 C333.4,205.3 334,202.1 334.4,198.9 C334.7,195.8 335.6,192.7 336.3,189.7 C336.9,186.9 337.3,184.1 337.5,181.3 C337.7,178.3 338.1,175.4 338.7,172.4 C339.5,167.9 340.1,163.3 340.5,158.7 C340.9,154.8 341.6,151 342.6,147.2 C343.2,144.6 343.5,142 343.6,139.3 C343.7,138.3 343.7,137.3 343.6,136.3 C343.6,135.8 343.7,135 343.4,134.9 C341.8,133.9 341.9,131.9 340.8,130.5 C338.5,127.3 336.6,123.8 335.4,120 C334.2,116.7 332.8,113.4 332.4,109.8 C332.2,108.1 331.7,106.4 331.1,104.8 C330.3,102.4 330.1,99.9 330.5,97.4 C330.5,96.4 330.2,95.5 329.6,94.7 C328.8,93.2 328.7,91.5 329.1,89.9 C329.3,89 329.8,87.9 329,86.9 C328.7,86.6 329,86.1 329.3,85.8 C329.6,85.5 329.7,85 329.4,84.9 C327.7,83.7 328.9,81.6 327.8,80.3 C327.4,79.9 327.6,79.4 327.8,78.9 C328.1,77.4 328,75.9 327.3,74.5 C325.5,70.6 325,66.5 324.7,62.2 C324.5,60.1 324,58 324.4,55.8 C324.6,54.7 323.6,53.8 323.7,52.7 C324,50.2 324,47.6 324.2,45.1 C324.4,43.5 325,41.8 324.3,40.1 C323.7,38.6 324.3,37.1 324.5,35.7 C325.2,31.5 325.3,27.1 326.8,23 C327.2,21.8 327.4,20.6 327.5,19.4 C328.1,15.3 330.3,12 332.6,8.8 C334.2,6.6 337.1,6.8 339.6,8.1 C341.6,9.2 342.9,11 344.2,13.1 C346.4,16.7 346.3,20.7 347.4,24.5 C347.6,25.4 347.6,26.3 347.5,27.2 C347.3,30 347.6,32.9 348.4,35.6 C348.9,37.3 348.6,39.1 348.9,40.8 C349.8,46.5 349.1,52.2 350,57.9 C350.2,59.3 349.5,60.7 349.5,62.1 C349.3,66.4 349.4,70.7 349.5,75 C349.6,78.9 349.3,82.8 349.1,86.6 C348.9,91.8 348.1,97 348.6,102.2 C348.8,104.2 348.2,106.3 348.2,108.3 C348.1,112.2 348.1,116.1 347.8,120 C347.7,122.2 347.4,124.4 346.9,126.6 C346.3,129.2 346.4,131.9 346.1,134.5 C346,135.5 346.7,136.4 347.2,137.2 C348.6,139.2 350.3,140.9 352.3,142.3 C353.9,143.5 355.8,143.1 357.6,142.8 C359.3,142.5 360.7,141.6 361.7,140.2 C363.3,138.1 364.4,135.6 364.9,133.1 C365.7,128.9 365.5,124.6 366.8,120.5 C368.1,116.4 368.6,112.3 369.4,108.1 C369.8,106.1 370.1,104.2 370.4,102.2 C371.5,96.8 373,91.6 374.9,86.5 C376.2,82.4 378.6,78.9 381.9,76.1 C382.9,75.2 384.4,74.9 385.7,75.3 C388,76.1 390,77.5 391.6,79.3 C392.6,80.4 392.7,82.1 392.7,83.5 C392.7,87 392.6,90.6 392.8,94.2 C392.9,98.4 393.1,102.7 393.5,106.9 C393.9,111.6 394.2,116.3 395.7,120.9 C396,121.8 396.3,122.6 396.7,123.4 C397.8,125.4 398.9,127.5 400.1,129.5 C401.7,131.8 404,133.7 406.6,134.7 C410.2,136.4 413.9,133 414.5,130.4 C415.9,124.7 416.7,118.9 417,113 C417.2,107.1 416.8,101.1 417.7,95.2 C418.4,91 418.5,86.6 418.9,82.4 C419.3,78.2 419.8,73.8 419.9,69.5 C420,65.2 421,60.9 421.1,56.6 C421.1,54.5 422,52.5 422.2,50.5 C423.1,43.2 424.5,35.9 426.3,28.8 C427.7,22.4 430.2,16.3 433.6,10.7 C434.8,8.8 435.5,6.5 437.1,4.8 C438.1,3.8 438.9,2.7 439.8,1.6 C440,1.3 440.3,1.1 440.6,1 C443.6,-0.2 448.5,1.5 450.3,4.3 C452.8,8.2 455,12.2 455.4,17.1 C455.7,20.5 457.2,23.8 457.8,27.2 C458.5,31.9 459.6,36.5 460.3,41.1 C460.6,43.7 461.1,46.3 461.8,48.9 C461.9,49.5 462.2,50 462.5,50.5 C463.3,51.6 464.3,52.8 465.7,52.7 C466.7,52.6 467,51.1 467.5,50.2 C468.4,48.7 468.5,46.9 468.9,45.2 C470,40.3 471.4,35.6 473.2,30.9 C474.6,26.8 476.5,23 478.9,19.3 C480.3,17.2 481.7,15.2 483.3,13.3 C485,11 488.3,10.4 490.7,12.2 C491.2,12.6 491.6,13 492,13.5 C493.7,15.6 494.6,18.2 494.7,20.8 C494.7,24.8 495,28.7 495.2,32.7 C495.4,38.4 495.3,44.1 496.1,49.8 C496.5,52.9 497.8,55.1 500.9,56 C502.3,56.5 504,56.1 505,55 C506.5,53.4 507.7,51.7 508.6,49.7 C511.9,43.3 513.9,36.3 517.7,30.1 C518,29.6 518.4,29.2 518.8,28.7 C520.3,27 522.2,25.5 523.6,23.7 C524.6,22.4 526.2,22.1 527.7,21.1 C526.6,20.4 525.6,20.8 524.7,20.7 L524.8,19.8 Z M540.9,182.1 C543.6,179.8 546.2,177.3 548.5,174.5 C551.5,170.7 554.8,167.2 556.2,162.5 C557.4,158.7 559.1,155.1 560,151.2 C560.3,149.8 560.5,148.4 560.8,147.1 C561.4,144.9 561.7,142.7 561.7,140.5 C561.6,135.5 561.3,130.6 560.7,125.6 C560.7,125.1 560.6,124.6 560.4,124.2 C559.2,122.1 559,119.8 558.4,117.6 C557,112.7 554.9,108 552.4,103.5 C550.8,100.5 548.5,97.9 546.9,94.9 C546.4,94.1 545.8,93.4 545.1,92.8 C542.9,90.7 540.3,89 537.5,87.7 C533.8,86.1 530.1,84.5 526.4,82.8 C522.1,81 517.7,79.6 513.2,78.6 C509.1,77.7 504.8,77.5 500.7,77.9 C496.3,78.3 491.9,78.6 487.5,79 C483.5,79.3 479.5,79.3 475.6,79.9 C469.9,80.5 464.4,82 459.1,84.3 C455.1,86 451.3,88.3 447.9,91 C445.1,93.4 442.4,96 441.1,99.5 C439.4,104.1 437.4,108.5 436.4,113.4 C435.6,117.4 434.4,121.4 433.3,125.4 C432.8,127 433.3,128.7 432.8,130.3 C432.3,132.2 432.1,134.1 432.2,136 C432.2,137.6 432.2,139.1 432.1,140.7 C431.8,145.8 432.1,151 433.2,156.1 C434.2,160.7 436.3,165 438.2,169.3 C439.1,171.4 440.4,173.4 442,175 C443.7,176.5 445.2,178.4 446.3,180.4 C446.7,181 447.2,181.6 447.8,182 C453.4,187.3 460.1,190.6 467.1,193.5 C470.7,194.9 474.4,195.8 478.1,196.3 C485.2,197.3 492.2,197.9 499.4,196.8 C503.7,196.1 508.1,195.7 512.4,194.6 C520.8,192.6 528.8,189.3 536.2,185 C537.5,184.4 538.2,183 537.9,181.6 C537.4,177.1 536.9,172.6 536.7,168 C536.6,166.2 536.2,164.4 536.1,162.6 C535.8,157.1 535.3,151.5 534.7,146 C534.1,140.8 533.7,135.6 533.3,130.4 C533.1,127.4 532.4,124.4 531.9,121.3 C531.7,120.4 531.3,120.1 530.2,120.1 C527.6,120.3 525,119.8 522.7,118.8 C519.1,117.2 515.7,115.1 514.4,110.6 C513.4,111.6 511.9,112.1 510.5,111.8 C506.3,111.4 502.1,111.2 497.9,111.1 C494.1,111.1 490.3,111.7 486.5,110.9 C485.3,110.6 485,111.2 484.8,112.4 C484.6,113.9 485.3,115.2 485.2,116.6 C484.9,120.8 485.9,124.9 486.1,129 C486.3,132.8 486.9,136.6 486.9,140.4 C486.9,145.3 487.3,150.2 487.3,155.1 C487.3,159.1 486.7,163 487.2,167 C487.4,168.8 486.5,169.5 484.6,169.5 C483.9,169.5 483.3,169.3 482.7,168.9 C481.6,168.2 480.2,167.8 478.9,167.9 C476.3,167.8 473.8,168 471.2,168.5 C469.1,168.7 467.1,169.2 465.3,170.2 C463.3,171.4 463.2,173.2 465,174.9 C466.7,176.3 468.9,177.1 471.2,177.2 C474.8,177.5 478.3,177.3 481.8,176.7 C483.9,176.3 485.9,177 488,176.3 C491.7,175.2 495.5,175.3 499.3,175 C502.9,174.7 506.2,173.4 509.8,173 C511,172.9 512,172.4 513.3,172.7 C515,173.2 515.7,172.5 516,170.7 C516.3,168.5 516.2,166.2 515.6,164.1 C515.4,163.2 515,162 513.9,161.8 C512.6,161.5 511.2,161.3 509.8,161.3 C507.5,161.4 506.5,163.3 507.6,165.3 C507.8,165.7 508.3,166.1 508,166.6 C507.5,167.3 506.8,167.8 505.9,167.8 C505,167.8 504.1,168 503.5,167 C502.7,165.8 502.6,164.3 503.3,163 C504.3,160.8 505.7,159 508,158.3 C510.1,157.9 512.3,157.7 514.4,157.7 C516.2,157.6 517.9,158.7 518.5,160.4 C519.5,163.8 520.9,167.1 519.9,170.8 C519.1,174.4 516.4,177.3 512.9,178.5 C512.4,178.6 511.9,178.6 511.5,178.3 C509.4,177.1 509.4,177 507.7,177.6 C507.2,177.7 506.7,177.8 506.2,177.8 C504,178 501.8,178.3 499.6,178.7 C498.3,179 497,179.1 495.7,179.1 C493.1,179 490.6,178.8 488.1,180 C487.5,180.3 486.8,180.4 486.2,180.3 C483.7,179.6 481.1,179.7 478.6,180.6 C478.2,180.7 477.8,180.6 477.4,180.6 C475.2,180.9 473.1,179.8 471.1,179.8 C467.5,180 464,178.6 461.5,176 C458.7,173.3 458.7,170 461.9,167.8 C462.2,167.6 462.6,167.4 463,167.2 C467.6,164.9 472.9,164.1 478,164.9 C479.1,165.1 480.2,165 481.2,164.8 C483.7,164.2 484,163.9 484.1,161.3 C484.3,155.3 484.9,149.3 484.9,143.2 C484.8,138.1 484.3,133 483.6,128 C483.1,123.7 482.4,119.5 482,115.2 C481.6,110.9 481.1,110.4 476.8,110.3 C473.4,110.2 470,110.2 466.6,110.3 C461.8,110.4 457.1,109.4 452.3,110.8 C450.8,111.3 449.9,110.5 449.4,108.8 C449,107.6 449.3,106.7 450.7,106 C451.4,105.6 452,105 452.3,104.3 C453.8,101.8 455.5,99.5 457.5,97.4 C460,94.3 464.2,93.1 468,94.3 C468.9,94.5 469.8,94.7 470.7,94.8 C473.9,95.2 476.9,96.5 479.5,98.5 C482.1,100.4 483.8,103.2 484.2,106.4 C484.4,108 484.7,108.3 486.2,108.1 C487.6,107.9 489,107.9 490.4,108.1 C491.8,108.3 493.2,108.4 494.6,108.4 C498,108.4 501.4,108 504.8,108.3 C507.6,108.3 510.4,108.2 513.2,107.9 C513.1,106.6 513.1,105.4 513,104.3 C512.8,102 514,100 514.5,97.8 C515.1,95.2 516.7,92.9 519.1,91.6 C523.1,89.4 527.4,88.9 531.7,88.1 C532.3,88.1 532.9,88.2 533.4,88.4 C535.4,89 536.8,90.5 538.4,91.5 C542.3,94 543.7,97.9 544.4,102.1 C545.1,106.6 544.2,111.3 541.8,115.2 C540.9,117 539.4,118.4 537.5,119.1 C535.4,119.8 535.2,120 535.5,122.3 C535.8,124.8 536.3,127.4 536.6,129.9 C537.1,135 537.5,140.1 537.9,145.3 C538.6,154.5 539.1,163.8 540.1,173.1 C540,176.1 540.3,179.1 540.9,182.1 Z M299.2,250.3 C299.4,245.8 297.6,243.7 293.3,243.2 C290.6,242.9 287.8,242.8 285.2,242.3 C282.1,241.7 278.9,242 275.8,242.1 C271.7,242.1 267.7,242.2 263.8,243.8 C260.3,245.3 257,246.8 254.2,249.6 C249.5,254.1 246.8,260.4 246.9,267 C246.9,274.8 250,280.2 255.5,284.7 C256.4,285.4 257.4,286.1 258.3,286.8 C264.1,291.2 270.5,292.7 277.7,290.6 C280.7,289.7 283.3,288.1 286.3,287.4 C290.7,286.3 294.7,284.3 298.2,281.5 C299.8,280.3 301,278.6 300.4,276.1 C300.1,274.4 300,272.8 300.1,271.1 C300,266.1 299.9,261.2 299.8,256.2 C299.8,254.1 299,252.1 299.2,250.3 Z M343.8,129.9 C344.4,125.4 345.1,121.4 345.4,117.3 C345.8,111.2 346.3,105 346.3,98.8 C346.3,97.3 345.9,95.8 346.3,94.4 C347.4,90.4 346.8,86.2 347.1,82.1 C347.5,75.4 346.3,68.7 347.1,62 C347.5,58.9 346.9,55.9 346.9,52.8 C346.9,48.8 346.7,44.8 346.2,40.9 C345.6,35 344.9,29.1 344.2,23.2 C343.7,18.6 342.6,14.3 339,11 C338,10.1 335.4,9.8 334.4,10.8 C333.5,11.7 332.8,12.7 332.3,13.8 C331.1,16.5 330.1,19.3 329.3,22.1 C328.1,26.7 327.4,31.4 327,36.1 C326.6,40.6 326.6,45.2 326.5,49.8 C326.4,54.4 327.4,58.9 327.6,63.4 C327.8,67 329,70.5 329.5,74.1 C330.3,78.8 330.9,83.4 331.3,88.2 C331.4,91.5 331.7,94.8 332.4,98.1 C334,104.6 335,111.2 337.6,117.5 C339.2,121.5 340.5,125.9 343.8,129.9 L343.8,129.9 Z M584.8,86.4 C588.5,85.5 592.3,85.5 595.9,84.2 C601.6,82.3 605.5,77.2 605.8,71.2 C606,67.4 605.8,63.6 605.1,59.9 C604.7,57.6 604.5,55.1 602.6,53.3 C601.7,52.5 601.2,51.2 600.2,50.5 C598.6,49.4 597,47.9 594.6,48.4 C593.7,48.6 592.6,47.3 591.6,48.6 C591.5,48.7 591,48.6 590.7,48.5 C589.2,47.8 587.5,48.3 586.2,48.8 C584.3,49.4 585.2,51.5 585,53 C584.9,53.3 585.1,53.7 585,54 C584.7,57.5 585.9,60.9 585.5,64.4 C585.3,65.8 585.5,67.2 585.4,68.6 C585.3,70.3 585.6,71.9 585.4,73.5 C585,76.8 584.7,80.1 584.5,83.4 C584.4,84.4 584.5,85.4 584.8,86.4 Z M541.2,105 C540.7,102.6 541.1,100.5 540,98.6 C539.4,97.6 538.6,96.7 538,95.8 C536.8,94.2 535.1,93 533.2,92.4 C528.3,90.8 520,92.8 517.7,99.3 C517.3,100.6 517,102 516.8,103.4 C516.1,107.1 518.8,113.2 522.2,114.8 C523.6,115.5 525.2,116 526.8,116.3 C529.5,116.6 532.2,116.7 535,116.5 C536.2,116.5 537.3,115.9 537.9,114.8 C539.8,111.9 541,108.5 541.2,105 Z M479.8,107 C479.5,105.6 479.2,104.1 478.1,103.3 C476.3,102 475,99.8 472.4,99.7 C472.2,99.7 471.9,99.6 471.7,99.4 C469.7,98.4 467.5,97.9 465.2,98 C463.5,98 462.1,98.4 461.2,99.9 C460.8,100.5 460.2,101 459.6,101.4 C458.3,102.3 457.2,103.5 456.5,104.9 C455.8,106.5 455.9,106.6 457.6,107.3 C458.4,107.6 459.2,107.8 460,107.8 C462.9,107.9 465.8,107.3 468.6,107.5 C472.3,107.8 476,107.3 479.8,107 Z M349.1,417.4 C350.3,417.8 351.6,417.1 352,415.9 C352.7,414 353.1,412 353.1,409.9 C352.9,406.6 351.8,403.4 350.1,400.6 C349.4,399.4 347.5,398.9 346.8,399.9 C345.2,401.8 343.9,403.9 342.9,406.2 C342.5,407.4 342.8,407.9 344.1,408 C344.8,408 345.6,408 346.3,408 C347.2,408 347.4,408.7 347.5,409.3 C347.6,409.9 347.1,410.1 346.6,410.3 C346.1,410.5 345.5,410.6 344.9,410.7 C342.4,410.9 342,411.4 342.7,413.8 C342.9,415.2 344,416.4 345.4,416.7 C346.7,417 347.9,417.3 349.1,417.4 Z M347.4,421.1 C347.8,421.4 348.1,421.8 348.7,421.6 C348.8,421.6 348.9,421.2 348.8,421.2 C348.3,421 347.8,421 347.4,421.1 Z" id="Shape" fill="#1B1D21"></path>
            <path d="M689.2,606.5 C685.8,606.4 682.4,606.7 679,606.8 C676,606.9 673,606.7 670.1,606.5 C666.7,606.3 663.3,605.6 659.8,605.9 C654.8,606.2 649.8,606.2 644.9,606.1 C642.1,606 639.5,606.6 636.7,606.6 C630.7,606.7 624.7,607.4 618.6,607.2 C610.8,607 603,608.3 595.2,608 C591,607.9 586.9,607.7 582.7,607.6 C576.7,607.4 570.8,606.9 564.8,607.2 C557.1,607.7 549.4,606.8 541.6,607 C539.9,607.1 538.3,607.3 536.7,607.6 C533.5,608 532.8,607.5 532.9,604.3 C533,603.7 532.6,603.2 532,603.1 C531.9,603.1 531.8,603.1 531.7,603.1 C529.4,603.1 528.7,601.6 527.9,599.8 C525.9,595.2 524.1,590.5 522.5,585.7 C521.5,582.8 520,580.1 519,577.2 C517.2,572 515.3,566.9 513.3,561.8 C512,558.3 510.6,554.9 509.1,551.4 C506.8,545.9 505.2,540.1 503,534.6 C500.5,528.3 498.7,521.7 496.2,515.4 C493.7,509.1 491.4,502.4 489.2,495.8 C487.7,491.3 485.9,486.8 484.5,482.2 C482.7,476.2 480.5,470.4 478.9,464.4 C478.2,462.1 477.3,459.9 476.1,457.8 C475.4,456.2 474.8,454.6 474.5,452.9 C474.2,451.7 474.3,450.8 475.5,450.2 C476.3,449.7 476.5,449.2 476.1,448.2 C475.5,446.8 475.8,446.6 477.3,446.2 C478.7,445.9 480.1,445.8 481.5,445.9 C486,445.6 490.4,445.3 494.9,444.9 C497,444.7 498.9,445.7 501,445.4 C501.7,445.4 502.4,445.9 502.4,446.7 C502.4,446.8 502.4,446.8 502.4,446.9 C502.5,449.9 504,452.4 504.8,455.2 C505.8,459 506.3,462.8 507.7,466.5 C508.7,469.3 509.5,472.2 510.5,475 C512.3,479.9 513.4,485 515.1,489.9 C516.1,492.6 516.5,495.5 517.8,498.1 C518,498.6 518.2,499 518.3,499.5 C519.5,504.8 521.9,509.8 524,514.8 C525,517.2 525.6,519.7 526.5,522.1 C528.1,526.3 529.3,530.6 530.6,534.8 C531.8,538.5 533.5,542 534.8,545.6 C537.2,552.8 539.8,560 541.7,567.4 C542.5,570.5 543.8,573.5 544.7,576.6 C545,577.8 545.4,578.6 544.5,579.7 C543.7,580.6 544.3,581.6 545.2,581.3 C547.7,580.5 550.2,581.3 552.6,581 C559.4,580.3 566.2,580.3 573,580.8 C579.4,581.1 585.7,581.6 592.1,582.2 C597.3,582.7 602.5,582.6 607.7,582.8 C613.2,583 618.7,583 624.1,583 C627.1,583 630.1,583 633.1,582.9 C640.5,582.8 647.9,582.6 655.2,582.5 C658.2,582.5 661.2,582.3 664.2,582.2 C667.9,582.1 671.7,581.8 675.4,581.7 C677.1,581.7 678.7,581.5 680.3,581.2 C683.6,580.6 686.9,581.1 690.2,580.9 C690.4,580.9 690.7,580.8 690.9,580.9 C693,581.9 695.2,582.5 697.5,582.7 C699.4,582.9 701,586.1 700.8,588.2 C700.6,591.3 700.1,594.5 699.3,597.5 C698.9,599.4 698.7,601.3 698.7,603.2 C698.6,604.6 696.6,606.6 695.2,606.6 C693.3,606.5 691.2,606.5 689.2,606.5 Z" id="Path" fill="#1B1D21"></path>
            <path d="M635,176.3 C632.5,178.7 630.2,181.3 628.1,184 C626.5,185.9 625.5,188.2 625,190.6 C624.7,192.1 623.7,193.1 623.2,194.4 C621,199.6 620.3,205 619.7,210.6 C619.1,216.2 618.4,221.5 618.3,226.9 C618.2,232.3 617.4,237.6 617.6,243 C617.7,243.7 617.8,244.5 618,245.2 C618.4,246.7 617.4,247.7 616.9,248.9 C616.7,249.4 616.1,249.4 615.6,249.3 C611.3,248.7 607.2,249.9 603.1,250.8 C601.3,251.4 599.6,252.3 598.1,253.5 C597.3,253.9 597,254.8 597.3,255.6 C597.5,256.4 598.2,257.1 599.1,257.1 C600.4,257.1 601.8,256.9 602.7,258.2 C602.8,258.3 603.2,258.4 603.4,258.3 C606.2,257.7 609.1,258.4 611.8,257.7 C612.7,257.5 613.6,257.5 614.5,257.5 C619.8,257.7 624.9,256.9 630.1,256.2 C631.6,255.9 633.1,255.8 634.6,255.7 C638.1,255.7 641.6,255.1 644.9,253.9 C645.4,253.8 645.8,253.6 646.3,253.4 C647.8,252.5 649.9,253.9 651.3,251.8 C652.2,250.4 653.9,249.5 655.3,248.5 C656.2,247.9 656.5,245.9 655.9,244.6 C653.7,239.7 650.2,239.6 646.3,241.5 C645.6,241.8 645.1,242.5 645,243.2 C644.9,243.7 644.7,244.2 644.1,244.3 C643.5,244.4 643,244.5 643.3,243.6 C643.4,243.3 643.7,242.9 643.6,242.7 C642.5,240.7 643.9,239.3 645.1,238.1 C646.4,236.9 648.1,236.2 649.9,236.3 C657.2,236.1 660.3,240.7 661.1,247 C661.6,250.7 658.9,254.5 655.4,255.9 C655.2,256 655,255.9 654.9,256 C651.7,258.9 647.7,257.8 644,258.2 C638.2,258.8 632.2,258.9 626.4,259.5 C617.4,260.4 608.4,261 599.4,261 C597.7,261.1 596.1,260.8 594.6,260.1 C590.9,258.2 591.7,253 594.4,250.9 C598.1,248 602.5,247 607,246.2 C608.9,245.9 610.8,245.5 612.6,245.2 C613.7,245 614.3,244.7 614.3,243.3 C614.5,238.1 615.2,232.9 615.1,227.7 C615,221.6 615.7,215.7 616.3,209.7 C616.6,205.4 617.4,201.2 618.7,197.1 C620.5,191.5 622.9,186.2 625.9,181.2 C627.2,179.1 628.7,177.1 630.5,175.4 C634.7,171 639.2,166.9 643.8,163.1 C646.6,160.8 649.6,159 652.9,157.6 C657,155.9 660.9,153.7 665.4,152.9 C668.6,152.4 671.8,151.8 674.9,151.4 C677.6,151 680.5,151.5 683.3,151.6 C685.9,151.7 688.6,152.1 691.2,152.4 C694.5,152.8 697.7,153.8 700.7,155.3 C704.5,157 708.1,159 711.5,161.4 C714.2,163.4 717.3,165 719.9,167.2 C723.2,170 725.6,173.4 728.1,176.8 C729.4,178.7 730.8,180.5 732.1,182.3 C732.8,183.3 733.4,184.4 733.9,185.5 C735.3,189.2 736.6,193 737.8,196.7 C740,203.5 740,210.6 740.8,217.5 C741,218.8 740.2,220.1 740.3,221.4 C740.6,224.4 740,227.4 738.5,230 C738.3,230.4 738.2,230.8 738.3,231.2 C738.5,233.5 737.2,235.6 737.1,238 C737.3,238.7 738.2,238.3 738.8,238.6 C739.6,239 740,239.8 740,240.6 C739.9,241.5 739.1,241.7 738.4,242 C738,242.2 737.6,242.2 737.2,242.1 C736.3,241.6 735.8,242 735.4,242.8 C734.1,245.8 731.7,248.2 730.2,251.1 C729.3,252.6 728.5,254.1 727.7,255.7 C727.1,257.4 725.4,258.4 724.1,259.7 C723,260.9 721.7,262 720.3,262.9 C719.2,263.5 718.4,264.5 717.9,265.7 C717.6,266.7 716.7,267.5 715.7,267.7 C717.2,270.4 719,272.9 721,275.2 C722.9,277.4 724.7,279.7 726.2,282.2 C727,283.7 728.1,285.1 729.3,286.4 C731.6,288.6 733.1,291.4 734.9,294 C739.1,299.7 742.4,306.1 746.2,312.1 C748.5,315.7 750.6,319.5 754,322.3 C754.7,322.8 754.9,323.8 754.4,324.5 C754.3,324.6 754.3,324.7 754.2,324.7 C753.4,325.7 752.7,325.9 751.7,325.3 C751.1,325 750.6,324.5 750.3,323.9 C749.4,321.2 747.3,319.1 745.9,316.7 C743.3,312.3 740.4,308.1 738.2,303.5 C736.3,299.7 733.7,296.4 731.2,293 C728,288.7 724.8,284.3 721.4,280.2 C718.8,277 716.6,273.5 713.2,271 C712.8,270.7 712.3,270.3 712.5,269.8 C713.2,268.4 712.8,267.1 712.7,265.6 C712.5,264.5 713.2,263.4 714.3,263.1 C717.3,262.3 719.3,260.5 721.4,258.1 C723.5,255.7 725.6,253.9 727,251.3 C728.7,248.1 731.3,245.4 732.8,242.1 C733.7,240 733.7,239.5 731.6,238.8 C730.4,238.4 729.3,237.9 728.2,237.2 C727.1,236.4 725.5,236.6 724.6,237.7 C722.1,240.5 718.7,241.3 715.1,241.3 C712.2,241.3 709.4,240.8 706.6,240 C704.6,239.5 702.8,238.3 701.7,236.6 C701.1,235.7 700.9,234.9 701.7,234.2 C702.4,233.6 703.3,233.7 704,234.3 C704.1,234.4 704.3,234.5 704.4,234.6 C706.4,236.8 708.9,237.7 711.8,238.1 C713.8,238.5 715.9,238.3 717.9,237.6 C722.5,235.7 725.8,232.4 726.9,227.5 C727.8,223.6 727.3,219.5 725.7,215.8 C723.2,210.2 719.3,207.3 711.8,206.9 C707,206.7 703.1,208.7 699.8,211.9 C698.9,212.6 698.3,213.7 698.3,214.9 C698.3,216 698,217.2 696.7,217.3 C695.6,217.5 694.5,216.8 694.1,215.7 C693.8,214.3 693,214.3 691.9,214.4 C691,214.5 690,214.1 689.6,213.3 C689.2,212.6 688.4,212.4 687.8,212 C682.7,208.9 677.7,205.5 672.9,201.9 C669.7,199.5 666.4,197.3 662.9,195.3 C660.1,193.7 657.5,191.8 655,189.9 C650.6,186.4 645.9,183.2 641,180.5 C638.9,179.6 636.8,178.1 635,176.3 Z" id="Path" fill="#1B1D21"></path>
            <path d="M137.6,524.8 C141.7,526.6 145.9,526.6 150.1,526.7 C156.6,526.9 163,526.4 169.4,525.9 C174.4,525.5 179.5,525.9 184.6,525.7 C190.6,525.4 196.5,526.7 202.5,526.5 C207.4,526.4 212.1,527.4 216.9,527.6 C224.6,527.8 232.3,528.6 240,527.9 C244,527.5 248.1,527.8 252.2,527.8 C254,527.8 255.7,527.4 257.4,527.4 C262.6,527.3 267.8,526.9 273,526.2 C275.5,525.9 278.1,525.9 280.6,525.8 C284.3,525.7 288,525.3 291.8,525.1 C302,524.5 312.2,524.2 322.3,523.2 C324.5,523 326.6,523.2 328.8,523.1 C334.4,523 340.1,522.8 345.7,522.8 C348.3,522.8 350.8,523 353.4,523.3 C356.5,523.6 359.7,523.6 362.8,523.3 C365.6,523.1 368.4,523.1 371.2,523.2 C374.8,523.3 378.3,523.5 381.9,523.7 C382.6,523.7 383.2,523.7 383.9,523.5 C385.2,523.2 386.5,523.2 387.8,523.4 C389,523.7 390.3,523.6 391.4,523 C392.2,522.6 393,522.5 393.8,522.6 C394.4,522.6 395,522.6 395.5,522.5 C397.8,522 398.6,521.1 398.4,518.7 C397.9,514.7 398.4,510.8 398.6,506.8 C398.7,504.4 398.5,502 398.8,499.6 C399.2,495.6 399.3,491.5 399.2,487.4 C399.2,487.2 399.2,486.9 399.2,486.6 C399.1,485.8 399.6,484.7 398.6,484.4 C397.9,484.1 397.3,485 396.7,485.4 C394,487.2 391.9,489.6 388.9,491.1 C387.8,491.6 387.3,492.8 386.5,493.6 C385.3,494.9 384.1,495.2 382.8,494.6 C381.6,494.1 380.3,492.4 380.7,491.3 C381.5,489.2 380.9,487.2 380.8,485.2 C380.6,481.6 380.8,477.9 380.1,474.3 C379.6,471.3 379.3,468.2 379.1,465.1 C379,462.2 378.6,459.3 378.1,456.5 C378,456 377.9,455.5 378,455 C378.2,454.1 377.5,452.7 378.7,452.4 C379.9,452.1 381.8,451.1 382.8,452.9 C384.4,455.7 387.5,456.4 389.7,458.3 C391.8,460 393.9,461.4 396.2,462.8 C396.6,461.2 396.7,459.5 396.3,457.8 C396,456.6 395.9,455.3 396,454.1 C396.1,452 396,449.9 395.7,447.9 C395.4,446.5 395.5,445.1 395.8,443.7 C396.1,442.7 395.8,442.2 394.7,441.6 C391.8,440.3 388.6,439.5 385.4,439.3 C384.2,439.3 383.1,439.1 382,438.7 C381.3,438.4 380.6,438.3 379.8,438.4 C376.8,439 373.9,438.1 371.1,437.2 C369.3,436.6 367.4,436.6 365.7,435.5 C363.2,433.9 361.4,431.4 360.7,428.5 C360.4,426.9 359.3,425.5 359.3,423.7 C359.3,423.3 359,422.8 359.2,422.5 C360.5,420.1 359.6,417.5 360.2,415 C360.3,414.8 360.3,414.5 360.3,414.3 C359.8,409.9 360.6,405.6 360.6,401.2 C360.5,400.2 360.6,399.2 360.9,398.3 C361.1,397.9 361.2,397.5 361.2,397.1 C361.2,393.2 361.3,389.2 361.7,385.3 C361.7,384.7 361.5,384.2 361.4,383.6 C361.1,381.8 361.8,380.2 362.6,378.6 C362.8,378.3 363.1,378.1 363.4,378.2 C363.8,378.2 363.9,378.6 364,378.9 C364.3,380.3 364.5,381.7 364.5,383.1 C364.1,388.5 364.5,393.8 364.3,399.2 C364.1,402.7 364.4,406.1 364.3,409.6 C364.3,412.3 364.1,415.1 363.7,417.8 C363.3,420.8 363.9,423.8 365.5,426.3 C365.7,426.6 365.8,427 366,427.1 C368.9,428.6 371,431.2 374,432.5 C374.8,432.9 375.7,433.1 376.6,433 C376.9,432.9 377.3,432.9 377.6,433 C380.3,433.8 383,434.2 385.8,434.2 C387.3,434.3 388.7,433.8 390.2,434.1 C392.1,434.5 394.1,434.8 396.1,434.9 C399,434.9 400.8,437.2 400,439.9 C399.3,442.3 399.5,444.6 399.5,447 C399.6,451.6 400,456.2 400.7,460.7 C401.1,462.2 400.7,463.8 399.6,464.9 C401.1,465.8 402.6,466.8 404.1,467.5 C405.9,468.3 407.7,469.2 409.3,470.3 C409.9,470.8 410.8,470.8 411.3,470.2 C411.3,470.2 411.3,470.2 411.3,470.2 C412.6,469 414.1,468.1 415.7,467.5 C416.3,467.3 416.7,466.6 416.6,466 C416.6,463.6 416.6,461.2 416.6,458.8 C416.6,455.8 416.5,452.8 416.5,449.8 C416.5,447.9 416.7,446 416.9,444.1 C417,443.1 417.1,443.1 418.7,442.4 C419.8,444.4 419.7,446.5 419.7,448.7 C419.8,453.6 419.9,458.5 420,463.4 C420,463.5 420.2,463.7 420.3,463.9 C421.5,463.6 422.5,462.9 423.4,462.1 C425.2,460.7 427.1,459.3 429.1,458.1 C430.8,457.1 432.4,455.8 433.7,454.4 C435.3,452.6 437.5,451.5 439.2,449.7 C440,448.8 442.4,449 443.2,449.7 C444,450.4 444.5,452.5 443.9,453.4 C441.6,456.8 442,460.7 441.5,464.4 C440.7,469.8 440.7,475.3 440.4,480.7 C440.3,482.5 440.1,484.3 441.1,486 C441.9,487.3 441.1,488.2 440.3,489 C439.5,490 438,490.2 436.9,489.5 C434.7,487.8 432.2,486.4 429.6,485.4 C426.6,484.1 423.6,482.6 420.9,480.7 C420.4,481.6 420.2,482.7 420.3,483.7 C420.4,488.7 420.1,493.8 420.4,498.9 C420.6,503 420,507.2 420.4,511.3 C420.7,514.9 420.4,518.6 420.9,522.2 C421.3,525.4 420.6,528.7 420.7,531.9 C420.9,538.7 421,545.5 421,552.3 C421,555.9 420.6,559.4 420.6,563 C420.4,571.5 419.1,580 418.6,588.5 C418.4,592.5 417.7,596.6 417.8,600.7 C417.8,601.4 417.7,602 417.4,602.6 C417.1,603.4 417.2,604.2 417.6,605 C418.1,606.1 417.6,607.4 416.6,607.9 C416.5,608 416.4,608 416.3,608 C415,608.5 414.1,608 414.2,606.6 C414.2,604.1 414.4,601.6 414.5,599.1 C414.5,598.6 414.8,598 414.3,597.7 C412.8,596.7 412.9,595.2 412.7,593.7 C412.4,591.1 411.2,588.8 410.5,586.4 C408.7,580.6 407.3,574.8 406.1,568.8 C405.5,565.6 404.7,562.4 403.6,559.3 C403,557.6 402.6,555.9 402.2,554.1 C401.4,551 400.5,547.9 399.4,544.9 C398.4,541.9 397.6,538.9 396.9,535.8 C396.3,533.2 395.1,530.8 394.5,528.2 C394,526.1 393.1,525.7 390.7,526.5 C386.3,527.7 381.8,528.3 377.2,528.3 C376.5,528.3 375.7,528.5 375.4,527.8 C374.7,526.5 373.5,526.8 372.4,526.7 C366.6,526.1 360.8,526.9 355,526.7 C351.5,526.6 347.9,526.1 344.4,525.8 C338.8,525.4 333.1,526.3 327.5,526.1 C324,525.9 320.5,526.3 317.2,527.2 C315.6,527.5 313.9,527.6 312.2,527.4 C309.9,527.3 307.6,527.3 305.3,527.6 C302,527.8 298.7,528.1 295.3,528.1 C290.8,528.1 286.4,529 281.9,529 C281.2,529.1 280.4,529.3 279.7,529.5 C278.7,529.9 277.7,529.9 276.7,529.5 C275.3,528.9 273.6,529.4 272.1,529.5 C266.7,529.8 261.4,530.6 256,530.4 C251.3,530.2 246.8,531.4 242,531.3 C239.8,531.2 237.6,530.5 235.3,531 C235.1,531 234.8,531 234.6,530.9 C233,530.7 231.6,532.3 229.7,531.1 C228.5,530.3 226.5,530.7 224.8,530.5 C222.4,530.3 220,530.3 217.6,530.5 C214.7,530.7 211.8,530.6 208.9,530 C208,529.8 207.1,529.8 206.2,529.9 C205.6,529.9 204.9,529.9 205,531 C205,531.3 204.5,533 203.5,531.3 C203.2,531.1 202.8,531.1 202.6,531.3 C200.6,533.1 198.4,531.7 196.3,531.9 C196,531.9 195.4,531.9 195.5,531 C195.6,530.5 194.8,530.5 194.3,530.8 C193.8,531.1 193.3,531.2 193.1,530.6 C192.9,530 193.9,530 193.9,529.4 C192.4,529 190.8,528.8 189.3,529 C184.8,528.9 180.3,528.9 175.9,529 C172.3,529 168.8,529.1 165.6,531.1 C164.6,531.7 163.4,530.3 162.4,531.4 C161.5,532.3 160.3,532.3 159.1,532.3 C158.6,532.3 158,532.4 158,531.7 C158,530.3 157.1,530.5 156.2,530.5 C151.1,530.3 145.9,530.6 140.8,529.8 C139.4,529.6 138.1,529.1 136.8,528.4 C135.1,527.4 134.1,525.7 134.1,523.7 C133.7,520.2 133.4,516.8 132.9,513.3 C132.3,509 131.8,504.6 131.5,500.2 C131.4,494.6 130.9,488.9 130.2,483.4 C130,482.3 130,481.3 130.1,480.2 C130.4,477.3 130.2,474.4 129.6,471.6 C129.5,471.3 129.5,470.9 129.5,470.6 C130,464.8 129.4,459 129.5,453.2 C129.5,448.1 129.1,442.9 129,437.8 C128.9,434.8 129.3,431.8 129.3,428.8 C129.3,426.1 128.7,423.4 129,420.6 C129.7,414.5 129.9,408.4 130.1,402.3 C130.2,398.8 130.5,395.3 130.6,391.9 C130.7,389.7 131,387.6 131.2,385.5 C131.6,378.4 132.3,371.3 131.9,364.2 C131.7,360.3 131.9,356.4 132.7,352.6 C133,351.2 132.3,349.9 132.4,348.5 C132.6,344.2 132.5,340 132.7,335.7 C132.9,331.8 133.2,327.9 133.7,324.1 C134.2,321.2 134.3,318.2 134,315.2 C133.9,314.9 133.9,314.5 133.9,314.2 C134.9,309.9 133.9,305.5 134.5,301.2 C134.7,299.5 134.8,297.7 135,296 C135.1,294.5 136.1,293.3 137.6,293.1 C138.5,292.8 139.5,293 140.1,293.8 C140.7,294.4 140.7,295.4 140.2,296.1 C138.1,299.9 137.9,304 138.1,308.1 C138.1,309.6 138,311.1 137.8,312.6 C137.5,315.9 137.6,319.2 137.6,322.5 C137.7,323 137.7,323.5 137.6,324 C136.2,328.7 136.4,333.5 136,338.2 C135.7,341.6 135.7,345 135.2,348.4 C134.5,353.1 134.3,357.8 134.5,362.5 C134.7,366.7 134.5,370.8 134.4,374.9 C134.3,378.1 134.1,381.3 134,384.6 C133.9,386.6 133.8,388.6 133.7,390.5 C133.6,393 133.5,395.5 133.5,398.1 C133.5,400.9 133,403.7 133.3,406.5 C133.7,411.2 133,415.8 132.6,420.5 C132.4,422 132.4,423.5 132.6,425 C133.1,428 133.1,431.1 132.7,434.1 C132.3,438.5 133.1,442.9 133.1,447.3 C133.1,453.2 133.3,459.1 133.4,465 C133.4,469.5 133.6,474.1 133.8,478.7 C133.9,481.7 134.6,484.6 134.3,487.6 C134.3,488.8 134.4,489.9 134.6,491.1 C135.2,498.3 135.7,505.6 136.9,512.8 C137.3,515.4 137.5,518.1 138.3,520.6 C138.9,521.9 138.1,523.3 137.6,524.8 Z M415.3,587.7 C415.9,586.7 416.1,585.5 416,584.3 C416.2,581.2 416.3,578 416.6,574.9 C417.4,568.3 417.4,561.7 417.8,555 C418.2,547.3 417.8,539.6 417.8,531.9 C417.8,526.7 417.5,521.5 417.4,516.3 C417.5,514.7 417.4,513.2 417.2,511.6 C416.8,509.1 416.7,506.5 417,503.9 C417.1,502.1 417.1,500.3 417,498.4 C416.8,495.8 416.7,493.1 416.7,490.5 C416.9,486.9 416.8,483.4 416.3,479.8 C416.2,479.3 416.4,478.7 415.8,478.5 C414.1,478 412.9,476.7 411.3,476 C410.4,475.5 409.4,475.6 408.6,476.3 C407.2,477.4 405.8,478.3 404.4,479.5 C403.5,480.3 402.1,480.9 403.2,482.5 C403.4,482.8 403.3,483.5 403.1,484 C402.6,485.3 402.5,486.6 402.8,487.9 C403.4,492.6 402.3,497.3 402.4,502.1 C402.5,505.5 401.8,509 401.8,512.4 C401.9,517.1 401.8,521.8 401.4,526.6 C401.3,528.4 400.9,529.8 398.7,530 C399.2,530.8 399.6,531.8 399.8,532.7 C400.7,536 401.4,539.3 402.6,542.5 C404,546.4 405.2,550.3 406.4,554.2 C408.9,562.3 409.9,570.8 412.1,579 C413.2,581.9 414.5,584.7 415.3,587.7 Z M161.3,530.5 L159.4,530.9 C160.1,531.2 160.8,531 161.3,530.5 L161.3,530.5 Z" id="Shape" fill="#1B1D21"></path>
            <path d="M96.2,298.6 L80.2,298.6 C78.6,298.6 77.3,297.4 75.8,297 C73.9,296.5 72,295.7 70.4,294.6 C69.6,294 69,293.3 68.4,292.6 C67.2,291.1 65.9,289.7 64.5,288.4 C62.5,286.3 61.1,283.7 59.4,281.4 C56.2,277 53.3,272.4 50.6,267.6 C49.1,264.8 47.4,262.1 45.6,259.4 C45.2,258.8 44.8,258.1 44.5,257.5 C43.7,255.9 42.8,254.3 41.7,252.8 C38.5,248.3 35.6,243.5 33.1,238.6 C31.6,235.7 30.3,232.6 28.3,230 C27.5,228.7 26.8,227.2 26.3,225.8 C24.6,222.2 22.4,218.9 21,215.2 C19.2,210.2 17,205.4 15.1,200.5 C14.2,198.3 13,196.2 12,194.1 C10.5,190.9 9.3,187.5 8.3,184.1 C8.1,183.4 7.9,182.7 7.6,182 C6.1,179.3 6,176.1 5.1,173.3 C4.1,170.2 3.4,166.9 2.1,163.8 C1.8,163.4 1.7,162.9 1.6,162.4 C1.8,156.8 0.6,151.2 0.3,145.6 C0.1,142.7 0.2,139.7 0.6,136.8 C0.6,136.6 0.7,136.3 0.8,136.1 C3.1,133.6 5.2,130.9 9,130.8 C9.5,130.8 10,130.9 10.4,131 C13.1,131.9 15.7,133.4 17.9,135.3 C20.6,137.6 23.1,140.2 25.3,142.9 C27.8,146 30,149.4 31.8,152.9 C34,157 35.8,161.4 38,165.6 C39.7,168.9 40.2,172.5 41.4,176 C41.8,177.3 42.3,178.5 42.8,179.7 C45.3,185.7 48.1,191.5 51.2,197.2 C51.6,198 52.1,198.8 52.6,199.5 C53.8,201.1 55,201.5 56.7,200.8 C58.9,200 59.5,199.1 59.3,197 C59.3,196.7 59.1,196.3 59.2,196 C60.4,193.4 59,191.1 58.2,188.8 C57.5,186.7 56.8,184.6 56.2,182.4 C55.6,180.2 54.4,178.2 53.7,176 C53.2,174.4 52.7,172.9 52.3,171.3 C51.4,167.7 50.2,164.2 49.2,160.6 C48.2,157 46.8,153.8 45.8,150.3 C43.7,142.6 42.8,134.7 41.2,126.9 C40.9,125.8 40.6,124.7 40.2,123.6 C39.3,120.5 38.8,117.3 38.7,114.1 C38.4,109.8 37.3,105.6 36.7,101.4 C36,97 36.1,92.5 37.1,88.1 C37.5,86.7 37.9,85.2 38.1,83.7 C38.2,82.4 38.7,81.1 39.5,80 C39.9,79.5 40.3,78.9 40.5,78.3 C41.2,76.4 42.3,74.6 43.7,73.1 C44.9,71.4 46.8,70.5 48.8,70.5 C52.2,70.6 55.6,70.1 58.9,71.3 C61.3,72.1 63.3,73.3 64.5,75.5 C65.5,77.4 67.3,78.8 68.3,80.7 C70.3,84.2 71.8,88 72.8,92 C73.5,95 74.2,98 75.2,100.9 C75.6,102.2 75.8,103.6 75.9,105 C76.2,108.1 76.7,111.2 77.4,114.3 C77.9,116.6 78.3,119 78.6,121.4 C79.1,125.3 79.4,129.2 80.7,132.9 C81.2,134.3 80.7,135.8 81,137.3 C81.6,140.1 82.5,142.8 83.2,145.6 C84.1,149.5 85.1,153.2 84.9,157.3 C84.8,159.2 86.1,161.2 87.1,163 C87.8,164.4 87.5,165.9 88.3,167.2 C88.5,167.5 88.2,167.9 87.9,168 C87.6,168.1 87.1,168.2 86.8,167.8 C86.4,167.1 86,166.3 85.6,165.6 C83.7,161.7 83,157.5 82.3,153.2 C82.1,152.2 81.9,151.3 81.6,150.3 C81.5,149.9 81.2,149.5 81.6,149.2 C82.5,148.6 82.1,148.3 81.5,147.7 C80.5,146.9 80.4,145.6 80.4,144.5 C80.2,142 78.8,139.6 79.3,136.9 C79.3,136.6 79.3,136.4 79.1,136.2 C76.8,131.6 76.7,126.4 75.9,121.5 C74.7,115 73.7,108.5 72,102 C71.3,99.8 70.8,97.5 70.7,95.2 C70.7,94.7 70.6,94.2 70.5,93.7 C69.2,90.4 68.3,87 66.4,83.9 C64.7,81 62.7,78.4 60.5,76 C59.7,75.3 58.8,74.8 57.7,74.6 C55.4,74 53,73.3 50.6,73.8 C47.4,74.4 44.7,75.6 43.6,79.2 C43.1,81.5 42.1,83.6 40.9,85.6 C40.6,86.1 40.4,86.7 40.4,87.2 C40.4,90.4 39.6,93.6 39.7,96.8 C39.8,98.6 39.7,100.4 40.5,102.1 C40.7,102.4 40.8,102.7 40.8,103 C40.1,106.6 41.7,109.9 42.1,113.3 C42.5,117 43.1,120.6 43.5,124.3 C43.7,126 44.1,127.7 44.6,129.4 C45.8,134.3 46.5,139.3 47.6,144.3 C47.8,145 48.1,145.7 48.3,146.4 C48.7,147.6 49.3,148.8 48.5,150.2 C48.1,150.8 48.2,151.7 48.8,152.1 C48.9,152.2 49.1,152.3 49.3,152.3 C49.5,152.3 49.6,152.7 49.7,152.9 C50.8,156.3 52.7,159.4 53.3,162.9 C53.5,163.8 53.8,164.6 54.2,165.5 C54.7,166.9 55.5,168.2 55.3,169.8 C55.3,170 55.3,170.3 55.4,170.5 C57.2,173.1 57.2,176.3 58.7,179 C59.5,180.6 60,182.3 60.4,184.1 C61.5,188.1 63.1,191.9 63.8,196 C64.3,198.9 63.6,200.7 61.2,202.3 C60.6,202.7 60.1,203.1 59.6,203.5 C57.1,205.5 54.3,205.1 51.6,204.4 C50.9,204.2 50.6,203.6 50.3,203 C48.7,199.8 47.1,196.7 45.5,193.5 C44.2,190.8 43.2,188 41.9,185.3 C40,181.7 39.3,177.7 37.9,173.9 C36.4,169.8 35.2,165.5 32.8,161.8 C32,160.4 31.3,158.9 30.7,157.3 C29.4,154.3 26.9,152.1 25.4,149.2 C23.7,146.1 21.3,143.3 18.4,141.2 C17.7,140.6 17,140 16.5,139.2 C15.2,137.1 13.1,136.2 11.1,135.1 C10.8,135 10.4,135 10.2,134.8 C8.8,133.4 7.4,134.2 6.1,134.9 C4.7,135.7 3.8,137.1 3.6,138.7 C2.5,143.4 3.4,148.1 3.7,152.8 C4.2,159.6 6.2,166.1 8,172.6 C9.5,178.2 11.3,183.7 12.9,189.3 C13.6,191.6 15,193.4 15.9,195.6 C18.6,202.2 21.3,208.9 24.5,215.4 C25.7,217.9 27,220.5 28.3,222.9 C31.1,227.8 33.5,232.9 36.8,237.5 C38.4,239.7 39,242.4 40.8,244.5 C41.9,245.8 42.6,247.5 43.9,248.7 C44.1,248.9 44.3,249.2 44.4,249.6 C45.3,252 46.3,254.4 47.6,256.6 C48.6,258.8 50.1,260.7 52,262.2 C52,263.7 54,264.3 53.7,266 C53.4,267.2 54,268.4 55,269 C56,269.6 56.8,270.5 57.1,271.6 C58.2,274.2 59.8,276.6 61.8,278.6 C62.8,279.6 63.6,280.8 64.3,282 C66.3,285.2 69.1,287.6 71.8,290.2 C75.6,293.7 80.1,294.4 84.8,294.7 C88.1,294.9 91.4,294.6 94.8,294.6 C97.1,294.5 99,296.2 99.2,298.4 C99.2,298.8 99.2,299.1 99.1,299.5 C98.8,301.5 98.5,303.6 98.1,305.6 C97.8,307.9 97.7,310.2 97.9,312.5 C97.9,316.9 97.8,321.3 97.5,325.7 C97.3,328.6 97.4,331.5 97.6,334.3 C97.9,338.3 97.5,342.4 97.6,346.5 C97.6,349.8 97.5,353.1 97.6,356.4 C97.7,359.7 97.4,362.9 97.2,366.1 C96.9,373.2 96.7,380.3 96.8,387.5 C96.8,389.4 96.7,391.3 96.4,393.2 C96.2,396.5 96.3,399.8 96.6,403.1 C96.7,405.7 96.6,408.2 96.4,410.8 C96.2,414.2 96.1,417.6 96.3,421 C96.6,428.4 95.8,435.8 95.7,443.1 C95.7,447 95.1,450.9 95.4,454.8 C95.6,459.1 95.5,463.4 95,467.7 C94.6,473.1 95.4,478.4 95.3,483.8 C95.3,484.5 95.3,485.1 95.3,485.8 C94.8,488.8 95.3,492 96.7,494.7 C97.1,495.4 97.6,496.3 96.8,497.2 C96.4,497.7 97.1,498.3 96.9,498.9 C96.7,499.4 96.7,499.9 97,500.4 C97.5,501.2 96.5,501.3 96.4,501.7 C96.3,502.1 97.2,502.2 97.3,502.7 C97.3,502.8 97.4,502.9 97.4,502.9 C95.6,505.1 98.1,507.6 96.8,509.9 C96.4,510.6 95.9,512.6 97.8,513.2 C98,513.3 97.9,513.6 97.8,513.8 C97.2,516.5 96.6,519.2 98.1,521.8 C98.3,522.2 98.4,522.6 98.2,523 C97.3,525.3 97.3,525.3 98.9,526.7 C98.7,527.5 97.6,526.8 97.4,527.7 C97.3,528.4 97.9,528.7 98,529.2 C98.4,530.8 98.6,532.4 98.4,534 C98.3,535.4 98.5,536.9 99.1,538.2 C99.5,539.6 100.1,541 99.2,542.4 C99.1,542.6 99,542.9 99.1,543.1 C100.2,545.1 99.3,547.5 100.2,549.5 C101,551.5 102,553.4 103.1,555.2 C104.1,556.6 104.8,558.3 106.8,558.6 C107.1,558.6 107.5,559 107.7,558.9 C110.4,557.9 113,559.5 115.8,558.8 C118.6,558.1 121.4,558.4 124.2,557.9 C127.2,557.4 130.2,557.9 133.1,557.8 C140,557.4 147,557.3 154,557 C159.4,556.8 164.8,557.1 170.2,557.4 C178.3,557.8 186.4,557.9 194.6,557.9 C200.2,557.9 205.9,557.6 211.5,557 C213.8,556.8 216.1,557 218.3,556.3 C218.4,556.3 218.5,556.3 218.5,556.3 C220.9,557.2 223.2,556.3 225.6,556.4 C226.4,556.4 226.9,555.8 227.7,555.8 C230.6,555.8 233.5,555.6 236.4,555.5 C237.3,555.4 238.2,556.8 239.1,555.4 C241.5,557 244.2,555.3 246.7,555.8 C249.1,556.3 251.5,555.7 253.9,556.4 C254.6,556.6 255.1,556.1 255.7,555.7 C256.7,555.1 257.8,554.9 258.9,555 C260.8,555 262.7,555.7 264.6,555.2 C266,554.8 267.4,554.7 268.8,554.8 C275.8,555.3 282.9,554.7 289.9,554.9 C295.1,555.1 300.3,555 305.5,554.6 C307,554.3 308.5,555 309.3,556.2 C309.8,556.7 309.7,557.5 309.2,558 C309.1,558.1 308.9,558.2 308.8,558.3 C307.3,559.1 305.7,559.4 304,559.2 C298.5,558.4 293,558.2 287.5,558.7 C284.3,558.9 281.2,558.9 278,558.7 C274.3,558.6 270.5,558.7 266.8,559.1 C264.3,559.4 261.8,559.6 259.4,559.6 C254.8,559.6 250.2,560.5 245.5,560.4 C243.2,560.3 240.9,559.6 238.6,560 C235.8,560.4 233,560.7 230.2,561.2 C229.2,561.4 228.2,561.4 227.2,561.3 C223.1,560.6 218.9,560.9 214.8,561.3 C213.6,561.4 212.3,561.4 211.1,561.1 C208.2,560.6 205.3,561.3 202.4,561.3 C197.3,561.5 192.3,561.5 187.2,561.6 C184.2,561.7 181.3,561.1 178.3,561.6 C177.3,561.7 176.3,561.6 175.3,561.4 C169.9,560.4 164.4,560.8 158.9,560.6 C153.5,560.4 148.1,560.6 142.7,561 C138.3,561.4 133.9,560.8 129.6,561.6 C128,561.9 126.3,561.5 124.7,561.5 C120.5,561.5 116.5,562.5 112.4,563 C108.7,563.4 104.9,562.7 101.6,561 C100.5,560.5 99.7,559.6 99.4,558.4 C98.9,556.8 97.8,555.5 97.2,554 C96.6,552.5 95.7,551.3 95.7,549.6 C95.7,549.1 95.5,548.6 95.3,548.2 C93.9,544.3 93.2,540.2 93.1,536.1 C93.1,531.7 92.6,527.3 92.7,522.9 C92.7,521.1 92.8,519.4 92.8,517.7 C92.9,514.7 92.6,511.7 92.1,508.8 C91.7,505.9 91.5,503 91.6,500.1 C91.5,498.5 91.3,497 91.1,495.4 C90.7,492.4 91.1,489.4 91.1,486.5 C91,480.3 90.8,474 91.3,467.8 C91.9,461.4 91.3,455 91.7,448.6 C92,442.6 92.2,436.7 92.5,430.7 C92.6,428.5 92.4,426.2 92.4,424 C92.4,419.5 92.4,415 92.8,410.6 C93.2,405.5 92.6,400.5 92.5,395.5 C92.5,393 92.9,390.6 93.1,388.1 C93.3,385 93.4,382 93.2,378.9 C93.1,372.9 93.8,367 93.8,361 C93.8,356.5 93.8,352.1 93.8,347.6 C93.8,345.4 94.1,343.1 94.2,340.9 C94.2,337.9 93.9,334.9 93.9,332 C93.9,327.5 94.1,323.1 94.2,318.6 C94.3,315.1 94.3,311.7 94,308.2 C94,307.2 94.1,306.2 94.4,305.3 C94.8,303.3 94.9,301 96.2,298.6 Z" id="Path" fill="#1B1D21"></path>
            <path d="M434.2,352.7 C431.4,352.3 428.8,352.1 426.6,350.3 C425.8,349.7 425.4,350.4 425.1,351 C423.9,352.7 422.4,354.1 420.6,355.1 C418.7,356.1 416.5,356.4 414.3,356 C412.1,355.7 410.6,353.9 409.3,352.2 C408.1,350.6 407.2,348.8 406.6,346.9 C406.5,346.1 406.1,345.3 405.5,344.7 C404.6,344.8 404.3,345.5 403.8,346.1 C401.5,348.9 398.5,350.9 395.1,352 C394.7,352.2 394.3,352.3 393.9,352.3 C392.2,351.9 391.4,352.8 390.5,354 C389.2,355.7 387.8,357.3 386.4,358.9 C385.6,359.9 384.6,360.6 383.5,361.2 C381.5,362.1 379.7,363.5 378.3,365.3 C377.1,367 375.1,367.3 373.1,367 C372.4,366.9 371.7,367.1 371.2,367.7 C368.8,370.4 366.2,373 363.7,375.6 C362.2,377.1 360.6,378.4 358.9,379.5 C356.7,380.9 354.2,381.9 351.5,382.3 C347,383 342.4,383.3 338,381.5 C335.8,380.5 333.7,379.3 331.8,377.8 C328.4,375.4 325.5,372.5 323.1,369.1 C320.1,364.9 318.1,359.9 317.3,354.8 C317.1,353.3 316.1,352.1 316,350.6 C315.8,345.4 316,340.2 318.1,335.4 C319.8,331.4 321.2,327.3 324.2,323.9 C326.4,321.2 328.9,318.8 331.7,316.7 C332.9,315.7 334.4,315.1 336,315.1 C337.3,315.1 338.6,314.3 340,314.1 C340.6,314 340.9,313.3 341,312.5 C341.2,310.1 342.1,307.9 342.8,305.6 C343.2,304.4 343.9,303.3 344.6,302.4 C345.9,300.5 346.9,298.4 348.2,296.6 C350.6,293.3 353.3,290.2 356.2,287.2 C356.6,286.9 357,286.6 357.5,286.4 C359.2,285.6 360.7,284.4 361.8,282.9 C362.8,281.4 364.2,280.1 365.8,279.2 C368.5,277.7 371,276 373.3,274 C376.4,271.2 380.3,270.1 384.2,268.8 C387.5,267.8 390.9,266.9 394.3,266.2 C397.6,265.4 401.1,265.6 404.3,266.8 C404.9,267.1 405.7,266.9 406,266.3 C408.1,263.2 411.2,261.2 414.5,259.6 C418.2,257.7 422.4,256.8 426.6,257 C431.2,257.3 435.3,259 439.6,260.2 C443.9,261.4 446.8,265.1 449.8,268.3 C450,270.2 451.5,271.4 452.6,272.8 C453.3,273.7 453.6,274.7 453.7,275.8 C453.9,279 454.6,282.2 454.5,285.5 C454.4,287.4 454.6,287.6 456.6,287.4 C459.9,287.2 463.3,287.8 466.3,289 C468.4,289.8 470.3,291.4 472.2,292.6 C472.8,293.1 473.4,293.4 474.2,293.6 C474.9,293.6 475.5,294.1 475.7,294.7 C475.8,294.9 475.9,295.3 476.1,295.3 C479.2,296.3 478.9,300.1 481.3,301.7 C481.6,301.9 481.7,302.4 481.7,302.8 C482.4,307.4 483.5,311.9 483.5,316.6 C483.5,318.8 483.3,321 483,323.3 C482.8,325.2 482.8,325.2 484.7,325.5 C487.3,325.9 489.9,326.8 492.1,328.1 C493.5,329 494.1,330.4 495.4,331.3 C496.7,332.1 497.6,333.4 497.8,334.8 C497.9,335.3 498.2,335.7 498.5,336.1 C499.3,337 499.4,338.3 498.9,339.3 C498.5,340.1 498.4,341.1 498.7,341.9 C499.5,343.8 499,346.1 500.4,347.8 C500.6,348.1 500.6,348.4 500.6,348.8 C500.1,350.7 499.7,352.9 498.4,354.3 C497.3,355.6 496.4,357.1 495.8,358.7 C494.6,361.6 492.7,364.2 490.3,366.2 C488.8,367.3 487.8,369 487.6,370.9 C486.9,376.2 484.2,380.5 480.3,384.1 C479,385.3 477.4,385.6 475.9,386.3 C471.6,388.3 466.9,388.8 462.1,389 C458.9,387.6 455,387.1 452.9,383.7 C451.5,381.5 449.6,379.5 449.9,376.5 C450,375.6 449.6,375 448.4,375.2 C445.8,375.6 443.3,374.7 440.8,374.6 C436.4,374.4 433.7,369.6 433.4,366.4 C432.9,363.1 432.8,359.8 433.1,356.5 C433.4,355.3 434.2,354.2 434.2,352.7 Z M496.2,353.9 C497.4,352.4 498.1,350.6 498.1,348.6 C498,344.9 497.5,341.2 496.8,337.5 C496.5,336.3 496,335.2 495.3,334.2 C492.6,329.9 488,329 483.6,327.8 C482.9,327.6 482.5,328.1 482.4,328.8 C482,331.7 479.9,333.7 478.6,336.2 C478.1,337 477.4,337.6 476.5,338 C474.7,338.9 473,339.8 471.3,340.9 C469.8,341.8 468,342.2 466.3,341.9 C464,341.8 462.1,339.9 461.9,337.6 C461.8,336.7 462,335.8 461.9,334.9 C461.7,333.4 462.5,331.9 463.9,331.2 C468.6,328.5 473.1,325.2 478.9,325.1 C479.9,325.1 480.3,324.5 480.4,323.5 C480.9,318.3 480.7,313.1 480,307.9 C479.2,303.5 476.6,300.5 473.8,297.5 C472.4,296.2 470.9,295.1 469.2,294.1 C465,291.5 460.2,290.2 455.3,290.3 C454.5,290.2 453.8,290.7 453.7,291.5 C453.3,293.3 452.5,294.9 452,296.7 C450.7,302.1 446.7,307 440.5,307.9 C435.6,308.6 432,305.5 432.1,300.6 C432.1,299.7 432.3,298.8 432.3,297.9 C432.3,296.8 432.8,295.8 433.7,295.1 C436.5,292.5 439.2,289.8 443.4,289.5 C443.5,289.5 443.6,289.5 443.6,289.4 C445.4,288.5 447.4,288.2 449.4,288.4 C451.2,288.5 451.8,288 451.8,286.1 C451.7,283.6 451.5,281.1 451.1,278.7 C451,277.3 450.6,275.9 450.1,274.6 C447.9,269.6 444,266.3 439.3,263.7 C436.7,262.3 433.8,261.9 431.1,260.9 C423.3,258.2 416.6,260.7 410.5,265.5 C407.4,268 407.6,269 411.2,270.4 C414,271.5 415.6,273.5 416.9,276.2 C418.2,278.9 417.2,281.2 417.2,283.8 C417.2,284.3 416.8,284.8 416.3,284.9 C414.9,285.5 413.5,285.9 412.1,286.2 C410.5,286.4 408.6,286.2 407.7,284.7 C407,283.5 406.2,282.4 405.4,281.2 C403.7,278.6 402.4,275.8 403.6,272.5 C403.7,272.3 403.6,272 403.7,271.8 C404.1,270.5 403.3,269.9 402.2,269.7 C400.2,269.4 398.2,269.2 396.2,269.2 C390.9,269.4 386,271.2 381.1,272.9 C378.6,273.8 376.3,275.2 374.2,276.8 C371.4,279 368.2,280.7 365.6,283.1 C362.7,285.7 360,288.5 356.9,290.8 C354.6,292.6 352.7,294.8 351.2,297.3 C349.3,300.4 347.7,303.6 345.7,306.8 C344.7,308.7 344,310.9 343.9,313.1 C345.3,313.4 346.4,312.5 347.5,312.9 C350,313.9 352.8,314.1 355.3,315.3 C357.6,316.5 358.9,319.1 358.6,321.7 C358.3,322.9 358.5,324.6 357.4,325.1 C355.5,326 354.2,327.6 352,328 C350.1,328.3 348.6,327.8 346.9,327.3 C345,326.7 343,326.5 343.3,323.8 C343.3,323.6 343.2,323.5 343.1,323.4 C341.1,322.3 340.9,320.2 340.1,318.4 C339.3,316.4 338.7,316.3 336.9,317.3 C334.6,318.5 333.1,320.8 331.1,322.3 C328.9,324 327,326.2 325.6,328.6 C320.8,336.4 318.8,344.7 320.4,353.8 C321,357.3 321.7,360.9 323.4,364 C326,368.7 329.2,373.1 333.9,376 C335.7,377.1 337.4,378.7 339.5,379.1 C342,379.6 344.6,379.7 347.1,379.4 C351.3,378.7 355.6,378 359,374.9 C362.3,372 365.2,368.8 367.9,365.4 C368.3,364.9 368.1,364.6 367.8,364.1 C366.7,362.6 365.4,361.3 364,360.2 C362.9,359.3 362.1,358.1 361.7,356.8 C360.5,353.6 360.6,350.4 360.5,347 C360.4,343.6 362,341.5 363.6,339.1 C364.3,338.1 365.6,337.8 366.8,338.3 C369.2,339.2 371.7,340 372.4,343 C372.8,344.1 373.3,345.1 373.9,346.1 C374.6,347.4 374.9,348.9 374.7,350.4 C374.5,351.7 374.5,353 374.7,354.4 C374.9,355.8 374.6,357.2 373.9,358.5 C373.5,359.3 373.3,360.2 373.3,361.1 C373.2,362.5 373.9,363.1 375.3,363 C376,362.9 376.8,362.7 377.4,362.4 C382.5,360.4 385.8,356.4 389.1,352.3 C389.6,351.7 389.7,351.1 388.9,350.6 C387.6,349.8 387.2,348.4 386.8,347 C386.4,345.9 386.3,344.7 385.9,343.6 C385.2,341.6 385.2,339.3 385.9,337.3 C386.5,335.3 388.3,334 390.4,334 C392.2,334.1 393.7,335.4 394.1,337.1 C395,340.8 396,344.5 394.4,348.2 C394,349.1 394.4,349.5 395.3,349.3 C395.9,349.2 396.4,349 396.9,348.7 C399.5,347.7 401,345.5 402.8,343.5 C404.6,341.5 404.8,339.4 404.5,336.8 C403.9,332.2 403.8,327.6 405.8,323.1 C407.6,319.2 411.7,318.4 414.6,321.5 C415.3,322.2 415.7,323.2 415.5,324.1 C414.7,328.8 412.9,333.4 410.3,337.3 C409.4,338.7 408.3,340.1 408.5,341.8 C408.9,344.8 410,347.6 411.7,350.1 C412.6,351.5 414.2,352.4 415.9,352.4 C418.7,352.6 421.4,351.4 423.1,349.2 C424.1,348.1 424.5,346.6 424,345.1 C423.7,343.6 423.6,342 423.7,340.4 C423.7,338.6 424.3,336.8 425.2,335.2 C426.1,333.4 428.3,332.8 430.1,333.7 C430.6,333.9 431,334.3 431.3,334.7 C432.4,335.8 432.7,337.4 432,338.8 C431,341.2 430.2,343.6 429.2,346 C429,346.5 428.6,347 429.4,347.4 C430.9,348.2 432.5,348.6 434.2,348.6 C435,348.6 435.7,348.1 436,347.4 C436.7,346.1 437.5,344.8 438.2,343.5 C440.2,339.7 441.7,339.9 445.4,340.8 C446.6,341.2 447.2,342.5 446.8,343.7 C446.7,343.9 446.7,344 446.6,344.2 C445.1,346.3 443.6,348.3 441.1,349.4 C438.7,350.5 437.1,352.9 437.2,355.6 C437.2,356.6 437.1,357.6 436.9,358.6 C436.1,361.3 436.8,363.9 437.6,366.4 C438.1,368.2 439.4,369.7 441.1,370.4 C443.3,371.1 445.6,371.5 447.9,371.6 C450.2,371.7 451,371.3 451.8,369 C453,365.7 455.4,363.5 458.1,361.5 C458.7,360.9 459.6,360.7 460.4,361 C462.3,361.6 463.3,363.6 462.7,365.5 C462.5,366 462.3,366.4 461.9,366.8 C461.3,367.5 460.7,368.2 460.2,369 C459,370.9 457.3,372.4 455.2,373.2 C454.1,373.5 453.5,374.6 453.8,375.6 C453.8,375.7 453.9,375.9 453.9,376 C455.2,379.9 458.3,382.9 462.3,384.1 C464.2,384.5 466.3,384.4 468.2,384 C472,383.4 475.7,382.9 479,380.5 C482.5,377.9 484.9,374.1 485.7,369.8 C485.9,369.1 485.5,368.9 484.9,368.8 C484.2,368.7 483.4,369.1 482.7,368.6 C481.3,367.7 479.7,367.2 478.1,366.9 C476.8,366.5 475.7,365.8 474.7,364.9 C474.3,364.7 474.2,364.1 474.4,363.7 C474.4,363.6 474.5,363.6 474.5,363.5 C475.2,364 475.8,364.5 476.5,365 C477.2,365.5 477.6,366.2 479,365.7 C476.9,364.3 476.2,362.2 475.3,360.3 C476.9,358.6 479,357.9 481.1,357.1 C482.3,356.6 483.8,356.8 484.9,357.6 C486.7,358.8 488.4,359.9 488.8,362.2 C488.9,362.6 489.3,363 489.7,362.7 C490.6,361.8 492,361.5 492.4,360.2 C492.8,358.9 494.1,358 494,356.4 C493.9,355.8 494.3,355.3 494.9,355.2 C495.1,355.2 495.2,355.2 495.4,355.3 C496.1,355.5 496.2,354.7 496.3,354.1 L496.2,353.9 Z M449.8,290.4 C447,290.6 444.2,291.2 441.6,292.2 C438.6,293.4 436.2,295.8 435.1,298.9 C434.7,300 434.8,301.1 435.4,302.1 C436.8,304.1 439.5,304.7 441.6,303.5 C442.5,303 443.5,302.6 444.6,302.5 C445.7,302.4 446.7,301.7 447.1,300.6 C448.4,297.6 449.6,294.5 450.8,291.4 C451.3,290.6 450.9,290.3 449.8,290.4 L449.8,290.4 Z M371.6,352.4 C371.5,349.5 370.8,346.7 369.5,344.2 C368.8,343 367.5,342.3 366.1,342.6 C364.8,342.8 365.4,343.9 365,344.6 C364.7,345.1 364.6,345.7 364.4,346.2 C362.7,349.5 364,352.8 364.8,356 C365.3,358 367.2,359.1 368.5,360.6 C369.4,361.6 370,361.4 370.4,360.1 C371.2,357.7 371.2,355.1 371.6,352.4 L371.6,352.4 Z M343.1,315.6 C342.9,317.4 343.4,319.3 344.4,320.8 C346.2,323.6 349.4,325 352.7,324.5 C354.2,324.1 355.3,322.9 355.6,321.4 C355.8,319.7 355.5,319.1 353.7,318.1 C351.5,316.9 349,316.1 346.5,315.7 C345.4,315.7 344.2,316.3 343.1,315.6 L343.1,315.6 Z M479.2,328 C474.6,328.4 470.5,329.3 467.3,332.5 C466.1,333.7 465.5,335.9 466.1,337 C466.7,338.1 468.6,338.2 470.4,337.5 C472.2,336.8 473.4,335.5 474.9,334.5 C477.3,333.1 478.3,330.8 479.2,328 Z M414.4,279 C414.4,277.3 413.2,275.1 411.2,273.4 C409.9,272.2 408.1,272.1 406.5,271.6 C406.4,271.6 406.1,271.8 405.9,272 C405.4,272.6 405.1,276.2 405.8,276.5 C407.5,277.3 407.9,279.2 409.1,280.3 C410.3,281.4 413,281.5 414.1,280.3 C414.3,279.8 414.5,279.4 414.4,279 L414.4,279 Z M407.3,336.8 C407.8,335.6 408.5,334.6 409.4,333.6 C409.8,333.3 410,332.8 410.1,332.3 C410.5,330.4 411.1,328.5 411.9,326.6 C412.2,325.7 412.2,324.8 412,323.9 C411.9,323.1 411.2,322.5 410.4,322.6 C410.1,322.6 409.8,322.7 409.6,322.9 C409.2,323.2 408.9,323.6 408.6,324 C406.1,328.2 406.4,332.5 407.3,336.8 L407.3,336.8 Z M392.1,342.2 C391.9,341.4 391.7,340.4 391.4,339.4 C390.9,337.9 390.1,337.8 388.8,338.7 C388.1,339.2 387.8,340.1 388.1,340.9 C388.5,342.8 388.9,344.6 389.3,346.4 C389.4,346.8 389.6,347.2 389.8,347.5 C390.2,348 390.8,348.2 391,347.3 C391.4,345.8 391.7,344.1 392.1,342.2 L392.1,342.2 Z M480.9,360.8 C479.7,360.8 478.9,361.7 479.5,362.4 C480.8,363.7 482.1,365.1 484.1,365.4 C485.1,365.5 485.3,365.1 485.1,364.3 C484.5,362.5 482.9,361.1 480.9,360.8 L480.9,360.8 Z M426.7,343.3 C427.6,341.8 428.3,340.2 428.8,338.5 C428.9,338.2 428.9,337.8 428.9,337.5 C428.9,337.3 428.7,337.1 428.5,336.9 C428.3,336.7 427.9,336.8 427.8,337.1 C427.8,337.2 427.7,337.2 427.7,337.3 C427.2,339.2 425.8,341 426.7,343.3 L426.7,343.3 Z M458.2,365.2 C457,366.5 455.3,367.3 454.4,369.4 C456.6,368.5 457.4,366.9 458.2,365.2 L458.2,365.2 Z M409.6,270.6 C410.1,271 410.5,271.7 411.5,271.4 C411,271 410.5,270.5 409.6,270.6 L409.6,270.6 Z M442.3,262.7 C442.3,262.4 442,262.1 441.7,262.1 C441.5,262 441.2,262.1 441.2,262.3 C441.2,262.5 441.6,262.7 441.8,262.9 C442,263.1 442.2,263.1 442.3,262.7 L442.3,262.7 Z" id="Shape" fill="#1B1D21"></path>
            <path d="M168.7,215.8 C168.2,215.3 169.2,214.7 168.2,214.3 C166.1,213.5 166.3,213.4 166.5,211.2 C166.9,206.9 168.4,202.9 169.8,199 C172,192.7 174,186.4 175.9,180.1 C178.1,172.6 180.1,165.1 182.1,157.6 C183.8,151.2 185,144.7 186.9,138.3 C188.8,131.7 190.5,125 192.7,118.5 C194.3,113.8 194.7,108.8 195.5,103.9 C195.6,102.4 195.4,100.9 194.8,99.5 C192.7,99.8 192.5,100 193.6,101.4 C195.1,103.2 193.9,104.9 193.9,106.6 C193.8,108.5 193.5,110.4 193,112.3 C192.9,113 192.8,113.9 191.5,113.7 C192.2,110.5 192.5,107.2 192.5,103.9 C192.6,101.4 192.8,98.7 191.8,96.3 C191.4,95.3 192.5,94.2 191.2,93.5 C191.2,93.5 191.3,93.1 191.4,93.1 C193.1,92.6 192.4,91.9 191.8,91 C191.2,90.2 190.8,89.3 190.5,88.3 C190,86.7 188.7,85.4 187.1,85.1 C185.9,84.7 184.8,84.2 183.6,83.8 C183.1,83.5 182.5,83.4 181.9,83.6 C179.6,84.5 177.1,85.3 175.5,87.2 C174.5,88.3 173.6,89.4 172.6,90.6 C171.7,91.5 171.1,92.6 170.9,93.8 C170.8,94.4 170.6,94.9 170.2,95.3 C168.6,97 167.9,99.2 166.6,100.9 C164.8,103.2 164.2,106 163.1,108.5 C162.5,110 161.3,111.3 161,113 C159.9,118.5 157.9,123.6 156.4,129 C155.2,133.4 154.5,137.9 153.6,142.3 C152.9,145.9 153.2,149.6 152.3,153.1 C151.3,157.1 151.6,161.3 150.8,165.4 C150,169.5 149.1,173.6 146,176.9 C144.6,178.4 143.1,179.5 141.1,179.1 C139.1,178.7 138.2,176.9 137.5,175.1 C136.2,172 136.4,168.8 136.4,165.6 C136.3,161.7 136.1,157.8 136.1,153.9 C136.1,149.7 136.1,145.4 136.4,141.2 C136.6,137.8 137.1,134.4 136.7,131 C136.5,128.6 136.5,126.2 136.6,123.8 C136.6,120 136.3,116.2 136.2,112.4 C135.9,108.6 135.8,104.8 135.9,101 C136.2,96.4 135.8,91.7 136.5,87.1 C136.6,86.5 136.5,85.9 136.4,85.4 C136,83.5 135.9,81.6 136.1,79.7 C136.2,75 135.7,70.3 134.7,65.7 C134.1,63.1 133.7,60.5 133.2,57.9 C133,56.6 132.5,55.3 131.7,54.2 C130.3,52.2 129.1,50 127.6,48.1 C124.2,43.9 119.7,43.8 116.2,46 C113.6,47.6 111.4,49.7 109.6,52.3 C107,56.2 104.9,60.5 103.4,64.9 C101.7,69.5 100.4,74.2 99.5,79 C99.4,79.5 99.4,80 99.4,80.5 C99.6,86.9 98.5,93.2 99.1,99.6 C99.5,104.7 99.2,109.9 99.5,115 C99.9,122.3 99.5,129.6 100.8,136.8 C100.9,137.2 100.9,137.6 100.8,138 C99.9,140.8 100.1,143.8 101.3,146.4 C101.4,147 101.4,147.5 101.4,148.1 C101.7,151.6 102.3,155 103.1,158.4 C103.1,158.5 103.2,158.5 103.2,158.6 C103.8,162.7 105.1,166.8 104.7,171.1 C104.5,173.5 103.9,175.6 101.6,176.9 C100.8,177.4 100,178.1 99.2,178.6 C96.7,180.1 93.6,179.6 91.5,177.6 C89.6,175.2 88.2,172.4 87.4,169.4 C89.1,169.3 90.6,170 91.6,171.3 C92.2,172.1 92.8,172.9 93.4,173.7 C94.7,175.5 97.2,176 99,174.7 C99.4,174.5 99.7,174.2 99.9,173.8 C101.2,172.3 101.7,170.4 101.4,168.4 C101.1,166.1 100.9,163.8 100.4,161.5 C99.7,158.1 99.8,154.6 99.1,151.2 C98.9,150.1 98.8,148.9 98.5,147.8 C97.8,144.4 97.5,140.9 97.4,137.4 C97.2,133.7 96.6,130 96.4,126.3 C96.2,122.6 96.3,118.7 96.2,114.9 C96.1,111.1 96.2,107.3 95.8,103.5 C95.3,99.1 95.2,94.7 95.6,90.3 C95.9,88 96,85.6 95.9,83.3 C95.9,81.7 96,80.2 96.3,78.6 C96.7,73.2 98.6,68.2 100.2,63.1 C101,60.4 102.1,57.8 103.5,55.3 C105.1,52.7 106.3,49.8 108.6,47.7 C109.3,47.1 109.7,46.3 110,45.4 C110.2,44.7 110.7,44 111.4,43.8 C114.5,42.9 117.2,40.5 120.7,40.9 C124.2,41.3 127.5,41.8 129.9,44.9 C131.1,46.5 132.2,48.3 133.4,50 C135.7,53.1 136.4,56.5 137.2,60.1 C138.7,67.2 139.8,74.3 139.4,81.6 C140.5,85.7 139,89.8 139,93.9 C139,94.8 139.3,95.9 138.2,96.6 C137.8,96.9 138,97.3 138.2,97.7 C138.9,99.1 139.2,100.7 139,102.3 C138.9,104 139.5,105.6 139.5,107.2 C139.5,107.8 139.7,107.9 140.2,107.9 C141.5,107.9 141.4,108.6 141.2,109.6 C140.8,112 140.3,114.3 141,116.8 C141.2,118.2 141,119.6 140.5,120.9 C140.1,122.4 139.9,123.9 140,125.5 C140.2,131.9 139.8,138.2 139.6,144.6 C139.3,150.3 139.5,156 140.3,161.7 C140.5,162.9 140.5,164.2 140.4,165.4 C140.3,167.9 140.6,170.4 141.4,172.7 C141.9,174.3 142.7,174.7 143.8,173.5 C145.4,171.9 146.6,170 147.3,167.8 C148.3,164.1 148.8,160.3 148.8,156.5 C148.9,153.6 149.3,150.7 149.8,147.9 C150.1,146.4 150.3,145 150.4,143.5 C150.5,141.9 150.9,140.2 151.4,138.7 C152.1,136.3 152.6,133.9 153,131.5 C153.3,129.3 153.8,127.1 154.6,125 C155.8,121.9 156.5,118.6 157.5,115.5 C157.9,114.3 158.3,113.2 158.8,112 C160.8,107.8 161.8,103.2 164.3,99.2 C167.2,94.5 170.5,90 174,85.7 C176.2,83 179.2,81.1 182.5,80.1 C184.5,79.5 186.4,80.3 188.3,81.1 C188.5,81.2 188.7,81.5 188.9,81.5 C191.9,82.2 193.1,84.6 194.5,87 C195.8,89.5 196.9,92 197.9,94.6 C199.9,99.4 199.2,104 198.5,108.7 C197.6,113.8 196.3,118.9 194.6,123.8 C193.3,127.6 192.2,131.6 191.4,135.6 C190.8,138.7 189.8,141.7 189,144.7 C187.6,150.2 186.3,155.6 185,161.1 C184.4,163.8 183.2,166.2 182.5,168.9 C181.3,173.9 179.8,178.8 178.6,183.8 C178.1,185.9 177.1,187.8 176.5,189.9 C175.5,193.9 174.2,197.9 172.7,201.7 C172,203.8 171.4,206 170.9,208.2 C170.8,208.7 170.7,209.2 170.8,209.7 C170.9,211.2 171.7,211.6 173,210.8 C174,210.2 174.9,209.5 175.8,208.7 C178.9,206 181.6,203 184,199.7 C184.8,198.5 185.7,197.4 186.7,196.5 C189.9,193.6 192.2,189.9 195,186.7 C195.6,186 195.7,185 196.6,184.3 C197.6,183.4 198.7,182.6 200,181.9 C201.3,181.4 202.4,180.3 202.8,178.9 C203.1,177.7 203.9,176.7 205,176.1 C205.1,176 205.4,175.9 205.4,175.9 C204.5,173.6 206.5,174.8 207.2,174.5 C207.7,174.3 208.2,174 208.7,173.6 C212.2,170.4 216,167.4 220,164.8 C222,163.5 223.9,162.1 225.6,160.4 C227.2,158.7 229.6,158 231.7,157.3 C232.7,157 233.7,156.6 234.7,156.1 C237.7,154.5 241.3,154.3 244.5,155.7 C248.8,157.4 251,160.8 253.1,164.4 C253.9,165.8 253.5,167.3 253.9,168.8 C254.6,171.2 255.1,173.7 253.9,176.1 C253.4,177.1 254,178.2 253.7,179.3 C252.4,184.4 250.8,189.3 247.4,193.4 C246.6,194.5 246,195.6 245.5,196.8 C243.3,201.5 239.8,205.3 236.4,209.2 C232.6,213.6 228.7,217.9 224.9,222.2 C224.3,222.9 223.7,223.5 222.9,224.1 C220.3,226.3 218.2,228.9 216.5,231.9 C215.3,233.5 214,235 212.5,236.4 C208.4,240.6 204.1,244.7 200.1,249 C197.5,251.8 195.1,254.8 192.9,257.9 C191.3,260.1 189.7,262.3 187.8,264.3 C184,268.5 180.7,273 177.2,277.5 C175.1,280.2 173.4,283.4 170.6,285.5 C170.1,285.9 169.9,286.9 169.4,287.4 C168.1,288.6 167.1,290.3 165.4,291.1 C163,292.4 161.3,294.4 159.1,295.9 C158.5,296.4 157.8,296.7 157.1,296.7 C154.6,296.8 152.1,297.2 149.7,296.6 C148.5,296.4 147.4,296.5 146.2,296.7 C144.8,296.8 143.6,296.1 143,294.8 C142.6,294.3 142.6,293.7 142.9,293.2 C143.3,292.6 143.9,292.1 144.6,292.3 C146.8,293.1 149,292.6 151.3,293 C154.7,293.7 158.2,292.5 160.5,289.8 C161.4,288.7 162.7,288.4 163.7,287.5 C165.1,286.2 166.4,284.8 167.5,283.3 C169.3,280.6 172,278.6 173.7,275.9 C177.2,270.4 181.7,265.8 185.8,260.8 C188.2,257.8 190.6,254.9 192.8,251.8 C193.9,250.4 195,249.1 196.3,247.9 C198.9,245.3 201.5,242.6 204.1,240 C208.4,235.8 212.4,231.3 216.2,226.5 C218.2,223.9 220.8,221.7 222.9,219.2 C225.8,215.7 228.9,212.4 231.9,208.9 C233.9,206.6 235.9,204.3 237.9,202 C240.6,198.8 242.5,195.1 244.6,191.6 C245.9,189.5 247,187.3 248,185 C248.9,182.9 249.5,180.8 249.8,178.6 C250.3,176.3 250.6,173.9 250.7,171.5 C250.7,170.3 250.5,169.2 250.2,168.1 C249.9,167.2 249.4,166.5 249.7,165.5 C249.7,165.3 249.7,165 249.6,164.8 C248.3,161.3 242.5,157.8 238.7,158.2 C238.3,158.2 237.9,158.3 237.5,158.5 C231.3,161.9 224.9,164.9 219.4,169.3 C216.1,171.9 212.5,174.2 209.4,177 C207.8,178.4 206.6,180.2 205.2,181.8 C199.8,187.6 194.4,193.3 189.4,199.3 C186.8,202.4 184.4,205.6 181.6,208.6 C180,210.5 178.1,212.1 176,213.4 C174.6,214.2 173.3,215.2 171.7,215.1 C169.8,214.9 169.4,215.6 168.7,215.8 Z M193.6,95.8 C192.9,96.9 193.2,97.6 194.4,98 C194.6,97.1 193.8,96.5 193.6,95.8 L193.6,95.8 Z" id="Shape" fill="#1B1D21"></path>
            <path d="M686.2,262.8 C686.1,263.7 686.3,264.7 686.9,265.4 C687.9,266.7 688.4,268.3 688.5,270 C689.1,273.9 687.6,276.7 684.7,279.1 C683.9,279.7 683.4,280.6 682.6,281.2 C677.3,285.6 670.1,286.9 663.7,284.4 C661.4,283.6 659.2,282.8 657.6,280.8 C657,280.2 656.6,279.5 656.2,278.8 C655.7,277.4 654.8,277.1 653.8,278 C653.2,278.5 652.4,278.9 651.6,279.1 C650.2,279.7 648.9,280.3 647.6,281.1 C644.8,282.7 641.8,284.2 638.8,285.4 C635.9,286.7 632.8,287.8 629.9,289.1 C627.7,290.1 625.7,291.3 623.7,292.4 C622.2,293.2 620.7,294.4 618.8,294.4 C618,294.4 617.9,295.5 617.1,295.8 C615.5,296.3 614.1,297.6 612.3,297.7 C611.8,297.8 611.4,298.1 611.1,298.5 C610.3,299.3 609.8,300.4 608.3,300.1 C607.5,299.9 607.9,301 607.2,301.2 C605.7,301.9 604.7,303.6 602.8,303.4 C601.2,305.3 598.5,305.4 596.9,307.3 C596.2,308.2 595.2,308.8 594.1,309.2 C593,309.5 592.6,310.8 591.3,310.8 C590.1,310.8 589.3,311.9 588.4,312.6 C586.5,314 584.5,315.3 582.4,316.5 C581.4,317 580.9,318.2 579.9,318.9 C578,320.1 576.2,321.5 573.9,321.9 C573.2,322.1 572.7,322.5 572.3,323 C570.8,324.6 568.9,325.9 566.9,326.8 C565.2,327.6 563.6,328.6 561.8,329.5 C557.1,332 552.3,334.2 547.4,336.1 C545.6,336.7 545.6,336.9 545.8,338.8 C545.9,339.6 545.8,340.5 545.3,341.2 C544.6,342.3 544.4,343.6 544.8,344.8 C545.4,350.2 545.8,355.5 546.6,360.9 C547.5,367.3 547.9,373.8 548.5,380.2 C548.7,382.7 549.4,385.1 549.1,387.6 C549.1,388 549.1,388.4 549.3,388.8 C549.6,390.4 549.9,390.7 551.5,390.3 C554.9,389.4 558.4,389.3 561.8,388.5 C564.6,387.8 567.4,388.2 570.2,388.2 C571.9,388.2 573.5,388.3 575,387.4 C576,386.8 577.3,387.4 578.4,387.1 C580.8,386.3 583.3,386.8 585.8,386.3 C587.9,385.9 589.6,387.5 590.9,388.9 C592.6,390.8 593.6,393.3 593.6,395.9 C593.7,397.2 593.7,398.6 593.6,399.9 C593.6,403.1 592.1,406.2 589.6,408.2 C587.7,409.9 585.2,410.8 582.6,410.6 C581.8,410.6 580.9,410.7 580.1,410.9 C579.4,411 578.6,411 577.9,410.7 C572.7,408.5 567.1,407.4 561.4,407.6 C558.9,407.6 556.5,407.3 554,407.6 C551.5,407.9 551.3,408 551.4,410.5 C551.6,413.6 551.7,416.6 552.1,419.7 C552.3,422.4 552.4,425.2 552.4,427.9 C552.5,430.3 552.5,432.7 552.5,435.1 C552.6,435.7 552.6,436.3 552.5,436.8 C552.4,437.7 551.7,438.3 550.8,438.3 C550.7,438.3 550.6,438.3 550.5,438.2 C549.5,438 548.9,437.2 549,436.2 C549.3,431.6 549.1,427 548.6,422.4 C548.3,419.8 548.2,417.1 548.4,414.5 C548.5,412.3 548.3,410.1 547.7,407.9 C544.3,408.5 540.9,408.9 537.5,409.1 C533.7,409.4 529.9,410.1 526.3,411.1 C523.5,411.8 521.1,413.3 519.2,415.5 C518.7,416 518.4,416.6 518.2,417.2 C516.2,424.9 517.1,432.1 522.3,438.5 C523.7,440.1 525.5,441.4 527.4,442.2 C532.4,444.5 537.2,443.5 542.1,441.9 C542.8,441.7 543.4,441.2 543.8,440.5 C544.4,439.7 545.4,439.2 546.4,439.1 C547.4,438.9 548.3,439.5 548.6,440.4 C548.7,440.8 548.7,441.1 548.5,441.5 C548.5,442.1 548.2,442.6 547.8,443 C545.9,444.2 544.2,445.8 542,446.3 C536.7,447.4 531.5,446.8 526.2,446 C523.2,445.5 521,443.4 519.5,441.3 C516.9,438.1 515.1,434.2 514.4,430.1 C513.8,426.8 513.7,423.4 514.2,420.1 C514.7,417.2 515.8,414.4 517.4,411.8 C518.4,410.2 520.5,409.3 522.5,409 C525,408.6 527.3,407.7 529.8,407.8 C530.8,407.8 531.8,407.1 532.9,406.9 C536.6,405.9 540.4,405.9 544.2,405.6 C544.7,405.6 545.2,405.6 545.7,405.5 C547.9,405.3 547.8,405.3 547.7,403 C547.7,400.8 547.6,398.5 547.3,396.3 C546.9,394.4 546.8,394.4 545,394.7 C540.1,395.6 535.3,396.7 530.3,397.3 C523.6,398.2 517,399.9 510.3,400.9 C503,402 495.8,403.8 488.5,404.6 C486,405 483.6,405.6 481.2,406.3 C480.4,406.5 480.2,406.9 480.3,407.8 C480.9,410.7 480.3,413.8 478.7,416.3 C478.6,416.4 478.4,416.5 478.4,416.7 C478.1,419.7 475.4,420.2 473.4,421.2 C471.1,422.3 468.8,421.2 466.7,420.3 C464.6,419.4 462.9,417.5 461.1,415.9 C460.6,415.3 460.3,414.6 460.3,413.9 C459.7,411.2 459.7,408.5 460.1,405.8 C460.4,402.9 461.3,400.1 462.7,397.6 C463.6,396.1 465.3,395.2 467.1,395.5 C469,395.7 470.9,396.1 472.7,396.5 C475.6,397 478,398.9 479.3,401.6 C480,403.1 480.6,403.3 482.3,403 C485.3,402.4 488.2,401.3 491.1,400.7 C494.5,399.9 498.1,399.8 501.6,399.1 C502.6,398.9 503.6,398.9 504.5,398.6 C508.1,397.6 511.9,397.4 515.6,396.6 C521.7,395.3 527.9,394.6 534,393.4 C537.5,392.7 541.1,392.5 544.5,391.6 C546.6,391 546.6,391.1 546.2,388.9 C545.5,384.5 545,380 545,375.5 C544.9,370.3 544,365.3 543.4,360.2 C542.6,353.7 541.9,347.2 541.2,340.7 C541,338.7 540.9,338.4 538.8,338.5 C537,338.4 535.2,338 533.5,337.3 C531.7,337 530.4,335.4 530.5,333.5 C530.5,332.9 530.3,332.3 530.1,331.8 C530,331.5 529.9,331.2 529.8,330.9 C529.6,329.7 530.9,324.4 531.7,323.4 C532.3,322.7 532.8,322 533.4,321.3 C535,319.2 537.9,318.8 540,320.4 C540.4,320.7 540.7,321 541,321.4 C542.3,322.8 543.1,324.5 543.4,326.4 C543.7,328.4 544.5,330.2 544.9,332.2 C545,332.9 545.4,332.9 545.9,332.9 C546.7,332.9 547.6,332.7 548.3,332.3 C552.1,330.3 556,328.6 559.7,326.4 C561.2,325.5 562.6,324.3 564.1,323.3 C567.5,320.9 571.3,319.3 574.9,317.2 C577.8,315.4 580.9,313.7 584.1,312.3 C585.1,311.9 586.1,310.7 587.2,310.3 C590,309.5 591.8,307.2 594.3,306.1 C596.2,305.3 598,304.3 599.8,303.2 C605.5,299.6 611.5,296.3 617.5,293.2 C624.2,289.6 630.9,286 637.8,282.6 C642.9,280.1 648.2,277.9 653.4,275.5 C654.5,275.2 655.2,274.3 655.2,273.2 C655.4,268.9 657.7,265.9 661.3,263.4 C663.6,261.8 666.2,260.7 668.9,260 C671.2,259.4 673.5,259.6 675.8,259.7 C677.3,259.7 678.8,260.2 680.3,260 C681,259.9 681.6,260.2 682.1,260.8 C683.1,261.9 684.2,261.6 685.3,261 C686,260.6 686.6,260.2 687.2,259.8 C689,258.5 691.1,257.9 693.3,258 C693.8,258 694.5,258 694.6,258.8 C694.8,259.4 694.6,260 694.1,260.4 C693.3,261.2 692.4,261.7 691.3,262 C689.4,261.9 688,262.8 686.2,262.8 Z M566.9,323.3 C565.5,322.8 564.5,323.7 563.2,324.4 C564.8,325 565.7,323.8 566.9,323.3 C567.4,323 568.1,323 568.2,322.2 C569.7,322 571,321.1 571.8,319.8 C570.3,320.2 568.9,320.7 568.2,322.2 C567.1,322.1 566.8,322.3 566.9,323.3 Z M588.5,395.2 C588.6,394.3 588.6,393.5 588.5,392.6 C588.2,391.5 587.1,391.5 586.5,390.9 C586.4,390.8 586.2,390.7 586.1,390.6 C585.2,389.1 584.1,388.8 582.6,389.7 C582.2,389.9 581.8,389.9 581.4,389.9 C578.1,390 574.9,390.8 571.6,390.5 C570.7,390.4 569.8,390.5 568.9,390.8 C567.5,391.2 566,391.4 564.5,391.4 C560.3,391.3 556.3,392.5 552.2,393.1 C550.4,393.4 550,394 550.3,395.9 C550.5,397.2 550.6,398.6 550.6,399.9 C550.9,405.2 551.1,405.5 556.6,404.9 C559.7,404.6 562.9,404.6 566,404.5 C568.9,404.3 571.5,405.3 574.2,406.3 C577.7,407.7 581.4,408.3 585,406.3 C585.9,405.8 586.7,405 587,404 C587.6,402.5 587.4,400.9 587.8,399.5 C588.4,398.1 588.6,396.7 588.5,395.2 Z M670.5,281.7 C672.5,281.9 674.5,281.5 676.3,280.7 C680.2,279.1 683.4,276.7 684.8,272.5 C685.8,269.9 684.9,267 682.5,265.6 C682.1,265.3 681.5,265.3 681.1,265.7 C680.1,266.8 678.8,266.9 677.6,267.3 C676.3,267.7 675,268.3 673.7,268.9 C671.5,270 669.5,271.6 667,272 C664.6,272.6 662.3,273.5 660.2,274.8 C659.1,275.4 659,275.9 659.7,277 C661.1,279.2 663.3,280.7 665.8,281.2 C667.3,281.7 668.9,281.8 670.5,281.7 L670.5,281.7 Z M475.7,404.3 C475.4,403.5 475.2,403 474.9,402.5 C473.9,400.5 472.4,399.3 470,399.8 C469.7,399.9 469.3,399.9 469,399.8 C467.3,399.6 466.2,400.6 465.4,402 C464.4,404 463.9,406.2 463.9,408.5 C463.9,412 465.9,415.1 469,416.6 C470.2,417.2 471.6,417 472.6,416.2 C475.7,414.3 475.8,411.4 476,408.4 C476,407.8 475.6,407.5 475,407.7 C474.4,407.9 473.9,408 473.3,408.2 C472,408.6 470.7,408.8 469.4,408.8 C468.6,408.8 468,408.2 467.9,407.4 C467.7,406.5 468.5,406.4 469.2,406.3 C471.5,406.1 473.4,405 475.7,404.3 Z M659.4,272.1 C666.1,269.6 672.2,266.7 678.3,263.8 C673.1,262.2 668.2,262.6 663.8,265.8 C663.1,266.4 662.4,267 661.6,267.5 C660,268.4 659.6,269.9 659.4,272.1 Z M540.4,331.1 C540.7,329.3 539.9,327.4 539,325.7 C538.6,324.9 537.7,324.3 536.8,324.3 C535.8,324.3 535.2,325 534.8,325.9 C533.8,327.9 534.3,330 534.3,332 C534.4,332.9 535.1,333.5 535.9,333.6 C536.5,333.7 537,333.8 537.6,333.9 C540.6,334.4 540.6,334.4 540.4,331.1 L540.4,331.1 Z M576.4,317.2 C576.5,317.3 576.5,317.5 576.6,317.5 C577,317.7 577.2,317.3 577.3,317 C577.3,316.9 577.2,316.7 577.1,316.7 C576.8,316.6 576.5,316.8 576.4,317.2 C576.4,317.1 576.3,317.1 576.4,317.2 L576.4,317.2 Z" id="Shape" fill="#1B1D21"></path>
            <path d="M653.6,536.5 C654.4,535.4 655.8,534.9 657.1,535 C662.2,535.1 667.2,534 672.2,533.8 C679.2,533.6 686,532 693,532.6 C694.8,532.7 696.7,532.5 698.5,532.2 C702,531.8 705.6,531.8 709.1,532 C718.5,532.1 727.9,532.3 737.4,531.5 C740.3,531.3 743.1,530.7 746,530.5 C749.5,530.2 753,530.6 756.4,530.4 C756.9,530.4 757.4,530.3 757.9,530.3 C759.5,530 759.6,529.8 759.5,528.2 C759.3,525.6 759.2,523.1 759.2,520.5 C759.2,517.7 758.7,514.9 758.5,512.1 C758.3,510 758.3,507.8 758.3,505.6 C758.3,501.5 757.4,497.5 756.8,493.5 C756.2,489.5 756.1,485.4 755.6,481.3 C754.9,475.9 754.8,470.4 754.1,465 C753.4,459.6 753,454.2 752.5,448.7 C752.5,448.2 752.4,447.7 752.3,447.2 C751.1,441.3 750.9,435.2 749.6,429.3 C749.6,429.1 749.6,428.8 749.6,428.5 C750.2,423.6 748.5,418.8 748.4,413.9 C748.4,412.4 747.8,412.1 746.2,412.4 C744.2,412.9 742.2,413.5 740.2,414.1 C738.3,414.7 736.3,415.1 734.4,415.3 C733.2,415.3 732.1,414.4 732,413.2 C732,412.8 732.2,412.4 732.6,412.2 C733.1,411.9 733.7,411.8 734.3,411.8 C738.3,411.3 742.2,410 746.1,409.2 C747.3,409 747.8,408.5 747.8,407 C747.8,404.5 747.1,402 747.2,399.6 C747.3,396.5 747.2,393.5 747,390.4 C746.8,386.3 746.3,382.2 746.3,378 C746.3,372.7 746,367.4 746.9,362.1 C747.6,358.2 747.7,354.2 748.6,350.3 C749.3,347.3 749.8,344.3 751.3,341.6 C752.3,339.7 753.2,337.7 753.9,335.7 C755,332.5 757.2,330 758.9,327.2 C759.2,326.8 759.6,326.5 760.1,326.4 C761.4,325.8 763.1,325.8 763.9,324.3 C764.1,324 764.5,324.1 764.8,324.2 C766.4,324.6 768.1,324.6 769.6,324.2 C770.8,323.9 772.1,324.2 773.1,325 C775.6,326.9 778.2,328.7 779.3,331.9 C779.7,333.1 780.8,333.8 781.5,334.9 C783.3,337.9 784.3,341.2 785.8,344.4 C786.4,346.1 786.8,347.9 786.9,349.7 C787.3,352.4 788,355 788.9,357.6 C790.2,361.3 790.9,365.3 790.7,369.3 C790.5,372.8 791.2,376 791.6,379.4 C791.8,380.3 791.8,381.2 791.7,382.1 C791.4,384 792.1,385.9 791.9,387.8 C791.8,388.7 792.1,389.6 791.3,390.5 C790.4,389.7 790,388.4 790.2,387.2 C790.6,384 789.9,381 789.4,377.9 C788.8,374.3 788.4,370.7 788,367.1 C787.2,361.2 786.1,355.3 784.6,349.5 C783.4,344.7 781.4,340.2 778.7,336.1 C778.3,335.5 777.9,334.9 777.5,334.2 C775.7,330.3 772.2,328.5 768.3,327.7 C765.7,327 762.9,327.6 760.8,329.4 C758.1,331.6 756.1,334.5 754.8,337.7 C753.5,341 752,344.2 750.9,347.6 C750.6,348.8 750.3,350 750.1,351.2 C748.4,358.8 747.7,366.6 747.9,374.4 C748,376.8 747.9,379.2 747.7,381.6 C747.5,384.2 748.1,386.7 748.4,389.3 C748.5,390.7 748.5,392.1 748.4,393.5 C748.2,395.9 748.2,398.4 748.4,400.8 C748.4,402.5 748.7,404.2 749.3,405.9 C749.7,406.7 748.8,407.9 749.8,408.4 C750.8,408.7 751.8,408.7 752.7,408.4 C758.2,407.3 763.8,406.5 769.4,406 C772.4,405.8 775.4,405.7 778.3,405.5 C782.7,405.2 787.1,404.7 791.5,404 C793.7,403.6 796.1,403.2 798.3,404.1 C798.8,404.3 799.5,404.4 799.5,405.1 C799.5,405.8 798.9,406.2 798.2,406.4 C797.1,406.7 795.9,406.9 794.8,407 C793.3,407 792.5,407.6 792.6,409.2 C792.6,409.4 792.4,409.6 792.1,410 C791.8,409 791.7,408 790.8,407.7 C789.9,407.4 789,407.4 788.1,407.7 C785.6,408.1 783,408.4 780.4,408.6 C774.5,409 768.6,409 762.8,409.8 C758.8,410.3 755,411.5 751,411.8 C749.1,411.9 748.8,412.5 749.2,414.2 C749.6,415.9 749.6,417.6 750.4,419.2 C750.9,420.2 751.1,421.3 750.9,422.4 C750.5,424.1 751.1,425.6 751.3,427.3 C752,431.7 752.5,436.1 753.1,440.6 C753.3,442.7 753.7,444.8 754.2,446.9 C754.6,449.1 754.8,451.3 755,453.6 C755.5,457.9 755.9,462.1 756.3,466.4 C756.8,471 757.1,475.6 757.4,480.3 C757.6,485 758.1,489.7 758.9,494.3 C759.7,498 759.5,501.9 759.6,505.7 C759.7,508.5 760.1,511.3 760.5,514.1 C761,517.7 761.1,521.4 761.3,525 C761.3,526.6 761.7,528.1 762.4,529.6 C763.9,532.4 762.6,534.6 759.5,534.9 C758.8,535 758.1,535 757.5,534.8 C756.1,534.3 754.6,534.2 753.1,534.4 C749.6,534.6 746,534.6 742.4,535 C736.5,535.6 730.6,535.3 724.8,536 C722.3,536.3 719.8,536.2 717.4,535.8 C713.9,535.2 710.4,535.9 707,535.5 C706.4,535.5 705.8,535.7 705.4,536.1 C704.9,536.4 704.2,537.2 704,535.8 C704,535.7 703.7,535.6 703.6,535.6 C701.2,536.5 698.7,535.5 696.3,535.9 C693.9,536.3 691.4,536 689,536 C686.1,536.1 683.2,536.3 680.4,536.7 C677.9,537 675.4,536.9 673,537.1 C669.9,537.1 666.9,537.3 663.9,537.8 C660.7,538.4 657.4,537.9 654.2,537.4 C654.3,536.8 653.9,536.7 653.6,536.5 Z" id="Path" fill="#1B1D21"></path>
            <path d="M751.3,143.7 C751.7,151.8 748.5,157.6 741.6,160.2 C737.6,161.8 733.1,161.9 728.9,160.5 C727.3,160 725.8,159.4 724.2,158.8 C721,157.5 718.3,155.1 716.5,152.1 C716.2,151.7 715.9,151.3 715.6,151 C714.4,149.5 712.3,148.4 713.5,146 C713.6,145.8 713.4,145.4 713.3,145 C712,140.4 713.3,136.4 716.4,132.9 C718.4,130.5 720.8,128.2 723.3,126.3 C726.1,124.1 729.8,123.2 733.3,123.9 C734.4,124.1 735.6,124.3 736.7,124.5 C739.5,125 742.1,126.1 744.4,127.7 C746.6,129.1 748.7,131.2 749.3,133.9 C750.2,137.3 751.3,140.7 751.3,143.7 Z" id="Path" fill="#1B1D21"></path>
            <path d="M116.3,628.2 C116.5,625.7 116.5,625.8 118.9,625.4 C121.4,625.1 123.8,624.5 126,623.5 C127.6,622.8 129.4,622.5 131.1,622.8 C135.8,623.3 140.5,623 145.2,622.7 C153.1,622.4 160.9,621.2 168.8,621.3 C171.2,621.3 173.6,621 176,620.8 C183.3,620.2 190.6,620.2 197.9,619.8 C202.4,619.5 207,619.7 211.6,619.4 C220.1,618.8 228.7,618.6 237.2,617.6 C243.2,616.9 249.3,616.7 255.3,616.8 C257.6,616.8 259.9,616.7 262.2,616.4 C264.3,616.2 266.3,616.3 268.4,616.2 C272,616.1 275.7,616.1 279.4,616 C286.1,615.8 292.8,615.4 299.5,615.1 C303.6,614.9 307.6,615.4 311.6,615 C313.2,614.8 314.7,615.6 316.4,615.7 C317.1,615.7 317.8,616 318.4,615.7 C320.2,614.8 322,615.2 323.8,615.3 C324.6,615.4 325.5,615.4 326.3,615.4 C334.4,614.4 342.7,614.8 350.8,614.2 C357.5,613.8 364.2,613.6 370.8,613.2 C373.8,613 376.9,612.5 379.9,612.3 C383.7,612 387.5,611.7 391.3,611.3 C392.9,611.2 394.4,610.6 395.9,610.5 C399.2,610.1 402.5,609.8 405.8,609.7 C408,609.6 410.2,609.3 412.4,608.9 C413.8,608.7 415.2,608.6 416.6,608.8 C418.1,609.1 419.1,610.6 418.8,612.1 C418.8,612.2 418.8,612.2 418.8,612.3 C418.7,612.7 418.4,613 417.9,613.1 C417.6,613.2 417.2,613.3 416.9,613.2 C413.5,612.3 410.2,613.3 406.8,613.5 C402.8,613.8 398.7,614.3 394.7,614.4 C391.7,614.5 388.8,614.9 385.8,614.9 C383.5,615.1 381.2,615.4 379,615.9 C372.3,616.9 365.5,617.3 358.7,617.3 C352.8,617.3 347.1,617.8 341.2,618 C336.7,618.1 332.2,618 327.7,618.3 C319.9,618.8 312.1,617.8 304.3,618.1 C298.6,618.3 292.8,618 287.1,618.6 C282.3,619.2 277.4,619.4 272.5,619.1 C269.3,618.8 266.1,619.6 262.9,618.8 C261.7,618.5 260.5,619.2 259.2,619.2 C255.7,619.3 252.1,619.3 248.5,619.4 C244.5,619.6 240.6,619.6 236.6,619.8 C234.7,619.8 232.8,620.2 231,620.8 C230,621.2 228.9,621.3 227.8,621.2 C225.5,621 223.2,621.1 220.9,621.4 C220,621.5 219.1,621.5 218.2,621.5 C215.5,621.4 212.7,621.6 210,622.2 C208.6,622.7 207,622.7 205.6,622.2 C205.1,622 204.6,622 204.1,622.1 C201.1,622.6 198,621.8 195,622.3 C190.5,623 185.9,622.5 181.4,622.6 C177.2,622.7 173,623.1 168.9,624.1 C167.5,624.5 165.9,624.6 164.5,624.2 C163.3,623.9 162,623.9 160.8,624.2 C157.2,625 153.6,624.6 149.9,624.9 C144.9,625.4 139.8,625.1 134.8,625.6 C132.5,625.8 130.2,625.8 127.9,625.9 C124.9,626 122.2,627.4 119.3,628 C118.4,628.7 117.3,628.6 116.3,628.2 Z" id="Path" fill="#1B1D21"></path>
            <path d="M543.1,500.5 C543.1,504.7 544.6,508.7 547.2,512 C549.1,514.2 551.6,514.7 554.4,514 C557.9,513.2 559.6,510.6 560.8,507.7 C562.1,504.6 561.8,501 559.8,498.3 C558.9,497 558.1,495.5 556.3,494.9 C555.5,494.6 554.9,493.8 555,492.9 C555,492 554.7,490.9 555.7,490.4 C556.6,489.9 557.6,489.8 558.5,490.2 C560.9,491.2 561.8,493.4 563,495.3 C564.9,498.2 565.1,501.5 565.4,504.8 C565.4,506.1 565,507.3 564.4,508.4 C562.9,511.7 561.1,514.7 557.7,516.5 C557.1,516.8 556.7,517.3 556.1,517.7 C555.5,518.1 554.7,518.3 554,518.1 C552.4,517.6 550.8,517.4 549.1,517.4 C547.2,517.6 545.3,516.7 544.2,515.1 C541,510.9 539,506.3 539.2,500.7 C539.3,497 541.1,493.9 541.7,490.4 C541.8,490 542,489.6 542,489.2 C542.5,484.3 544.7,480 546.8,475.7 C547.9,473.2 549.2,470.8 550.7,468.5 C551.6,467.1 552.3,465.6 552.8,464 C553.3,462.6 554.2,461.4 555.4,460.6 C556.8,459.7 557.6,458.1 558.8,457 C561.8,454.3 564.5,451.3 568.6,450.3 C570.7,449.8 572.6,448.4 574.6,447.4 C574.9,447.2 575.3,447 575.7,446.8 C581.2,445.4 586.4,443 592.3,442.9 C598.3,442.9 604.1,444.9 608.8,448.6 C610.6,449.9 612.3,451.3 614.1,452.7 C618,455.6 620.9,459.3 623.7,463.1 C625.5,465.3 627.1,467.8 628.4,470.4 C631.3,476.9 633.9,483.5 635.2,490.6 C635.8,493.8 637.1,496.8 637.9,499.9 C638.4,501.7 638.7,503.6 638.9,505.5 C639.7,511.6 640.6,517.7 641.7,523.7 C641.8,524.2 641.8,524.7 641.8,525.3 C641.8,526.7 641.5,527 639.8,527.2 C638.5,527.4 638.4,526.4 638.3,525.7 C638.2,522.9 637.9,520.1 637.3,517.3 C636,511.9 636.2,506.2 634.6,500.9 C633.2,496.1 632.3,491 630.6,486.3 C628.6,480.3 626.8,474.3 623,468.8 C619.7,464.3 616.1,459.9 612.3,455.8 C611.8,455.3 611.2,454.8 610.5,454.5 C609.2,453.9 608.1,453.1 607,452.1 C606.2,451.2 605.2,450.6 604,450.4 C603.5,450.3 603,450.1 602.7,449.8 C599.4,446.9 595.4,446.1 591.2,446.5 C589.5,446.6 587.7,446.3 586,446.8 C580.7,448.3 575.4,449.7 570.4,452.4 C566.9,454.3 563.8,456.9 560.5,459.1 C558.6,460.4 557.6,462.5 556.4,464.3 C552.6,469.9 550.1,476.1 547.3,482.2 C546.1,485.2 545.2,488.3 544.5,491.4 C544,493.5 543.7,495.6 543.2,497.7 C543.2,498.5 543.1,499.5 543.1,500.5 Z" id="Path" fill="#1B1D21"></path>
            <path d="M400.9,416.8 C402.2,417.1 402.7,416.3 403.4,415.8 C405.5,414.3 408.3,414.6 410.1,416.4 C410.6,417 411.1,417.5 411.6,418.1 C413.8,420.5 419.4,420.8 422.2,418.1 C422.8,417.5 423.9,417.5 424,416.3 C424.2,414.2 422.8,412 420.7,412 C417.9,412 414.9,411.3 412.2,413 C411.3,413.6 410.1,413.5 409.5,412.6 C408.8,411.8 408,410.8 408.6,409.7 C409.4,408.1 409.2,406.5 409.1,404.9 C409,403.7 409,402.6 409.2,401.4 C409.4,399.2 409.3,396.9 409.1,394.7 C408.9,391.2 409.6,387.8 409.5,384.3 C409.4,381.8 409.3,381.5 406.7,381.4 C402.8,381.4 398.9,381.4 395,381.4 C390.8,381.4 386.5,381.5 382.3,381.6 C381.8,381.7 381.3,381.7 380.8,381.6 C378.4,380.9 376.1,381.7 373.7,381.6 C373.6,381.6 373.5,381.6 373.5,381.7 C372.3,382.2 370.9,381.7 370.3,380.5 C369.8,379.8 369.9,378.8 370.5,378.2 C371.3,377.3 372.6,376.9 373.9,377.2 C377.1,378.1 380.4,378.5 383.7,378.4 C389.9,378.1 396.2,378.5 402.4,378.4 C404.9,378.4 407.4,378.6 409.8,377.9 C410.4,377.8 411,377.7 411.5,377.8 C414.3,377.8 415.1,378.5 414.3,381.2 C413.5,384.1 413,387.2 412.8,390.2 C412.4,393.4 412.5,396.7 412.8,399.9 C413,401.4 412.5,402.9 412.6,404.4 C412.7,407.3 412.9,407.6 415.8,407.3 C418.3,407.1 420.9,407.3 423.4,407.9 C426.4,408.4 428.6,410.9 428.9,413.9 C429.1,414.9 429.3,415.8 429.3,416.8 C429.2,419.5 427.4,421.1 425.1,422.1 C424.4,422.3 423.7,422.6 423,423 C419.9,424.9 416.7,424.8 413.3,423.7 C411.5,423.2 409.7,422.4 408.2,421.4 C407.7,420.9 407,420.8 406.4,421.2 C404,422.4 401.5,422.2 398.9,422.2 C397.3,422.2 395.9,421 395.6,419.3 C395.2,417.7 395.8,416.1 397.2,415.2 C397.9,414.9 398.6,414.6 399.2,414.2 C399.7,413.8 400.3,413.4 401,414 C401.6,414.5 401.8,415.3 401.4,416 C401.3,416.1 401.1,416.4 400.9,416.8 Z" id="Path" fill="#1B1D21"></path>
            <path d="M592.7,486.3 C590.5,486.8 588.6,488.1 586.5,488.8 C582.8,490 580.4,492.9 578.5,496.2 C576.5,499.6 574.9,503.3 573.9,507.1 C572.4,512.3 571.4,517.5 570.9,522.9 C570.6,526.2 570.8,529.5 571.6,532.7 C571.9,533.7 572,534.6 572.2,535.6 C572.4,537.5 573.7,538.7 574.9,540 C575.3,540.4 575.9,540.6 576.5,540.6 C578.9,540.9 581.1,539.5 581.9,537.2 C583,534.1 583.8,530.8 584.2,527.5 C584.7,523.7 585.6,519.9 586.9,516.2 C587.9,513.2 588.8,509.9 591.1,507.3 C592.2,506.1 593.1,504.7 594.7,504.1 C594.8,504.3 595,504.5 595,504.5 C593,507.5 592.7,511 591.3,514.2 C588.7,520.3 587.7,526.7 586.9,533.2 C586.5,536.7 584.7,539.8 583.4,542.9 C583.1,543.4 582.7,543.8 582.1,544 C578.6,545.1 575.1,545.5 572,543 C571.6,542.7 571.3,542.4 571,541.9 C569.6,538.7 567.2,536 567.6,532 C567.8,529.4 567.4,526.7 567.4,524 C567.5,519.6 568.3,515.3 569.7,511.1 C570.2,509.5 570.5,507.9 570.9,506.3 C571.9,502.1 573.6,498.1 575.9,494.5 C577.5,492.1 579.8,490.2 581.8,488.1 C582.2,487.7 582.7,487.4 583.2,487 C585.9,484.3 588.6,484 592.7,486.3 Z" id="Path" fill="#1B1D21"></path>
            <path d="M448.7,439 C445.7,438.7 442.5,439 439.4,437.8 C437.4,437.3 435.4,437.1 433.3,437.3 C429.1,437.3 425.1,438.5 421,438.8 C420.7,438.8 420.3,438.8 420,438.8 C419,438.8 418.2,438 418.2,437.1 C418.2,436.2 418.8,435.5 419.7,435.3 C422.5,434.6 425.3,434 428.2,433.4 C429.2,433.2 430.3,433 431.4,432.9 C435.3,432.4 439.3,432.6 443.2,433.4 C444.4,433.8 445.7,433.7 446.8,433.2 C448,432.7 449.5,433.3 450.6,432.2 C450.9,431.9 451.5,431.9 451.5,431.5 C451.7,429.2 452.5,427.1 452.1,424.7 C451.7,423 451.6,421.3 451.9,419.6 C452.3,418 451.7,416.4 451.7,414.7 C451.7,409.7 451,404.8 451.3,399.8 C451.3,397.6 450.8,395.5 449.9,393.5 C449.5,392.5 449.4,391.4 449.7,390.4 C449.9,389.7 449.9,388.8 450.9,388.7 C451.8,388.6 452.7,389 453.2,389.9 C453.8,390.9 454,392.1 453.8,393.2 C453.6,394.2 453.6,395.2 453.8,396.1 C454.1,399.3 454.3,402.6 454.4,405.8 C454.4,408.8 455.2,411.7 455.1,414.7 C455.1,415.2 455.2,415.7 455.5,416.1 C456.9,418.7 457,421.6 457.1,424.5 C457.1,426.4 457.2,428.2 457.2,430.1 C457,436 454.6,438.8 448.7,439 Z" id="Path" fill="#1B1D21"></path>
            <path d="M667.8,565.2 C669.9,564.8 671.6,564.1 673.4,564.1 C679,564.1 684.7,563.7 690.3,563.1 C693.4,562.9 696.6,562.8 699.8,563 C704.9,562.9 709.9,562.6 714.9,562 C722.7,561.2 730.4,560.7 738.2,560.5 C743.4,560.4 748.6,560.1 753.9,560 C760.8,559.8 767.6,559.5 774.5,559.2 C775.9,559.1 777.3,558.9 778.7,558.6 C783.4,557.8 788.1,557.7 792.8,558.4 C793.5,558.5 794.1,558.8 794.5,559.3 C794.8,559.6 795,560 794.9,560.4 C794.7,560.9 794.2,561.1 793.7,561.1 C793.4,561.1 793,561.1 792.7,561.1 C785.2,560.8 777.8,561.8 770.3,561.9 C765,562 759.7,562.7 754.4,562.3 C752.5,562.2 750.5,562.8 748.5,562.9 C740.5,563.2 732.4,563.3 724.4,563.6 C720.3,563.8 716.2,564.3 712,564.7 C707.5,565.2 703.1,565.3 698.6,565.5 C693.3,565.7 688,565.7 682.7,566 C678.8,566.3 674.9,566.3 671,566 C669.9,566.1 668.8,565.8 667.8,565.2 Z" id="Path" fill="#1B1D21"></path>
            <path d="M639.2,457.6 C639.6,460.5 639.3,463.4 638.4,466.2 C637.7,468.6 637.2,471 637,473.5 C637,474.2 637.1,475.2 636,475.2 C635,475.3 634.2,474.5 634.1,473.6 C634,473 634,472.4 634,471.9 C634.2,469.1 634.7,466.3 635.3,463.6 C635.7,462.4 635.8,461.2 635.6,459.9 C635.4,458.7 635.4,457.4 635.5,456.2 C635.6,448.4 632.5,441.6 628.6,435.1 C628.3,434.7 628,434.3 627.6,434 C624.7,431.8 621.3,430.3 617.7,429.7 C613.6,429.2 610.9,432.7 612.1,436.7 C612.3,437.4 612.4,438.2 612.6,438.9 C612.8,440.1 613.2,441.3 613.9,442.4 C614.6,443.4 614.4,444.7 613.4,445.4 C613.4,445.4 613.4,445.4 613.3,445.4 C612.6,445.9 611.5,445.6 610.8,444.4 C609.6,442.3 608.6,440.1 607.6,438 C607.3,437.1 607.3,436.2 607.6,435.3 C608.1,430.1 613.2,424.7 618.7,426.6 C619.3,426.7 619.9,426.8 620.4,426.8 C622.5,427.1 624.6,427.4 626.3,429 C627.7,430.4 629.7,430.9 631.1,432.5 C633.3,435.3 635,438.4 636.2,441.8 C636.7,443.4 637.3,444.9 638,446.4 C639.3,448.7 639,451.4 639.3,453.9 C639.3,454.9 639.2,456.2 639.2,457.6 Z" id="Path" fill="#1B1D21"></path>
            <path d="M794,430.2 C794.7,431.4 795.1,432.8 795,434.2 C794.9,437.5 795.9,440.7 795.2,444 C795,445.1 795.5,446.3 795.5,447.4 C795.5,453.2 796,458.9 796.4,464.7 C796.8,468.9 796.8,473.1 796.6,477.3 C796.3,481.2 796.8,485.1 796.8,489 C796.9,492 796.9,495 796.9,497.9 C796.8,501 796.9,504.1 797.2,507.1 C797.4,509.2 797.5,511.3 797.4,513.3 C797.3,516.7 796.8,520.2 797.1,523.6 C797.4,527 797.5,530.4 797.5,533.9 C797.5,536.4 797.3,538.9 797.1,541.4 C796.8,543.3 796.9,545.2 797.5,547.1 C797.6,547.3 797.6,547.6 797.5,547.8 C796.5,550.7 797.5,553.6 797.7,556.5 C797.7,557.6 796.8,558.5 795.7,558.5 C794.8,558.5 794.4,557.9 794.4,557.1 C794.4,553.6 794.2,550.2 794.5,546.7 C795,542 795,537.3 795,532.6 C795,528.1 795,523.7 795.1,519.2 C795.2,515.1 795,510.9 795,506.8 C794.9,501.2 794.8,495.5 794.8,489.9 C794.8,485.7 794.6,481.5 794.6,477.2 C794.7,472.8 794.5,468.4 794.1,464.1 C794,463.4 794.1,462.6 794.3,461.9 C795,459.7 795.4,457.5 794.1,455.3 C794,455 794,454.6 794.1,454.3 C794.6,453.1 794.6,451.7 794.2,450.4 C793.8,448.6 793.7,446.8 794,445 C794.4,443.6 794.1,442.2 793.3,441 C793,440.6 792.9,440.1 793,439.6 C794.2,436.7 793.2,433.6 793.5,430.6 C793.7,430.6 793.8,430.5 794,430.2 Z" id="Path" fill="#1B1D21"></path>
            <path d="M666.2,214.4 C664.4,214.3 663,214.5 661.7,213.9 C661.5,214.9 662.9,214.7 662.8,215.7 C660.6,216.7 658.7,216.1 656.6,215.1 C651.2,212.6 645.7,210.3 640.2,208 C636.1,206.4 632.1,204.5 628.2,202.3 C627.1,201.6 626.7,200.7 627.1,199.9 C627.8,199.1 629,199 629.8,199.7 C629.8,199.7 629.8,199.7 629.8,199.7 C632.3,201.9 635.6,202.5 638.4,204 C641.9,205.8 645.7,207 649.3,208.6 C651.6,209.6 654,210.6 656.3,211.7 C656.7,211.9 657.3,211.9 657.7,211.6 C655.3,210 653.2,208.3 650.7,206.9 C647.1,204.9 643.5,202.7 640.2,200.3 C637.6,198.1 634.8,196.2 631.8,194.5 C631.5,194.3 631.2,194.2 631,194 C629.7,193.1 629.3,192.1 629.8,191.4 C630.8,190.5 632.2,190.5 633.2,191.4 C634.3,192.3 635.4,193.2 636.5,194 C641.2,197.7 646.3,201.1 651.5,204.1 C652.8,204.8 654,205.6 655.3,206.5 C657.2,208 659.4,208.9 661.8,209.3 C664.3,209.8 665.1,212 666.2,214.4 Z" id="Path" fill="#1B1D21"></path>
            <path d="M245.2,551.1 C244.6,547.5 245.1,544 245.2,540.4 C245.2,538.6 245.5,536.8 246.2,535.1 C246.6,534.3 246.2,533.5 246.5,532.7 C246.7,532.3 246.7,531.6 247.4,531.7 C247.9,531.8 248.3,532.3 248.3,532.8 C248.3,532.9 248.3,532.9 248.3,533 C247.3,537.1 247.7,541.3 247.6,545.5 C247.6,547.7 247.4,550.2 249.1,552.1 C249.6,552.7 248.9,554.2 248,554.5 C246.9,554.8 245.8,554.3 245.4,553.2 C245.2,552.6 245.1,551.8 245.2,551.1 Z" id="Path" fill="#1B1D21"></path>
            <path d="M668.2,224.8 C665.9,225 663.2,222.1 663.1,219.4 C663.1,218.6 663.5,217.9 664.1,217.5 C665.6,216.4 668.1,216.6 669.9,218 C671.3,219.3 671.9,221.3 671.5,223.2 C671.1,224.2 669.9,224.9 668.2,224.8 Z" id="Path" fill="#1B1D21"></path>
            <path d="M388.5,388 C390.7,388 392.9,390.7 392.4,392.8 C392.1,393.9 391.1,394.6 390,394.6 C388.1,394.5 386.3,393.4 385.5,391.6 C384.7,389.9 384.9,389.3 386.7,388.6 C387.3,388.2 387.9,388 388.5,388 Z" id="Path" fill="#1B1D21"></path>
            <path d="M438.6,389.1 C438.6,391 437.6,392.1 435.8,392.1 C433.8,392.1 431.5,390.4 431.6,389 C431.7,387.2 433.6,385.8 435.9,385.8 C437.7,385.8 438.6,386.9 438.6,389.1 Z" id="Path" fill="#1B1D21"></path>
            <path d="M793.7,417.2 C793.6,418.6 793.7,420 794.1,421.4 C794.2,422.1 794.3,422.7 794.1,423.4 C794.1,423.8 794.1,424.4 793.6,424.3 C793.1,424.2 792.9,423.8 792.9,423.2 C792.9,421.1 792.7,419 792.3,417 C792.1,415.7 792.1,414.3 791.9,413 C791.8,412.7 792,412.3 792.3,412.2 C792.4,412.2 792.4,412.2 792.5,412.2 C793,412.1 793.2,412.5 793.3,412.9 C793.4,414.3 793.6,415.9 793.7,417.2 Z" id="Path" fill="#1B1D21"></path>
            <path d="M791.2,391.5 C792,392.1 792.5,393 792.6,394 C792.6,396.3 792.7,398.6 793,400.9 C793.1,401.1 793,401.4 792.8,401.6 C792.4,401.8 792.2,401.6 792,401.4 C791.8,401.2 791.5,401 791.6,400.8 C791.9,397.8 790.7,394.9 791.2,391.5 Z" id="Path" fill="#1B1D21"></path>
            <path d="M558,27 C559.4,27.9 560.5,29.3 560.9,30.9 C559.5,30 558.5,28.6 558,27 L558,27 Z" id="Path" fill="#1B1D21"></path>
            <path d="M606.7,84.3 C606.3,85.7 605.5,87 604.2,87.8 C604.9,86.5 605.3,85.1 606.7,84.3 Z" id="Path" fill="#1B1D21"></path>
            <path d="M558,26.9 C556.8,27.4 555.5,27.2 554.3,27.6 C555.4,26.5 556.7,26.6 558,26.9 L558,26.9 Z" id="Path" fill="#1B1D21"></path>
            <path d="M191.1,532.1 C191.9,531.5 192.9,531.4 193.8,531.8 C193.1,532.8 192.4,532.7 191.1,532.1 Z" id="Path" fill="#1B1D21"></path>
            <path d="M793.7,428.7 C793.5,428.4 793.4,428.1 793.3,427.9 C793.2,427.7 792.6,427.4 793.1,426.9 C793.2,426.8 793.4,426.8 793.6,426.8 C794.1,426.7 794.3,427.1 794.3,427.5 C794.3,427.8 794.3,428.1 794.2,428.4 L793.7,428.7 Z" id="Path" fill="#1B1D21"></path>
            <path d="M445.4,382.2 C446.1,382.2 446.9,382.5 447.4,383 C446.6,383.2 445.9,382.9 445.4,382.2 Z" id="Path" fill="#1B1D21"></path>
            <path d="M189.2,530 C188.9,530.4 188.9,530.5 188.8,530.5 C188.4,530.7 188.1,531.2 187.6,531.1 C187.5,531.1 187.4,530.8 187.4,530.7 C187.6,529.9 188.2,530 189.2,530 Z" id="Path" fill="#1B1D21"></path>
            <path d="M146.7,132.3 C147.3,132 147.7,131.9 148.1,132.5 C148.2,132.7 148.2,132.9 148,132.9 C147.5,133.2 146.9,132.9 146.7,132.3 C146.7,132.4 146.7,132.3 146.7,132.3 Z" id="Path" fill="#1B1D21"></path>
            <path d="M447.1,7.5 C446.8,7 446.8,6.5 447.3,6.2 C447.4,6.1 447.6,6.1 447.7,6.1 C447.9,6.7 447.6,7.3 447.1,7.5 C447.1,7.5 447.1,7.5 447.1,7.5 Z" id="Path" fill="#1B1D21"></path>
            <path d="M522.8,20.9 C523.2,20.1 524.1,20 524.8,19.8 L524.7,19.7 C524.4,20.7 523.6,20.7 522.8,20.9 L522.8,20.9 Z" id="Path" fill="#1B1D21"></path>
            <path d="M522.7,20.8 C522.7,21 522.6,21.2 522.5,21.5 C522.3,21.8 522,22 521.8,21.7 C521.6,21.4 521.9,21.1 522.1,21 C522.4,20.9 522.6,20.8 522.7,20.8 L522.7,20.8 Z" id="Path" fill="#1B1D21"></path>
            <path d="M579.9,546.4 C579.8,546.5 579.7,546.6 579.6,546.7 C579.3,546.7 579,546.6 578.8,546.3 C578.7,546.1 578.7,545.9 578.8,545.9 C579.2,546 579.5,546.2 579.9,546.4 Z" id="Path" fill="#1B1D21"></path>
            <path d="M522.6,392.7 C522.4,392.8 522.2,392.9 522,392.9 C521.8,392.9 521.7,392.8 521.9,392.6 C522.1,392.5 522.2,392.5 522.4,392.4 C522.5,392.3 522.6,392.4 522.6,392.7 Z" id="Path" fill="#1B1D21"></path>
            <path d="M299.2,289.7 C298.7,291 298.1,290.5 297.5,290.9 C298,290 298.6,290.3 299.2,289.7 Z" id="Path" fill="#1B1D21"></path>
            <path d="M164.7,213.6 C165,213.6 165.3,213.8 165.4,214.1 C165.4,214.1 165.2,214.3 165.1,214.3 C164.8,214.3 164.5,214.3 164.4,213.9 C164.4,213.8 164.6,213.7 164.7,213.6 Z" id="Path" fill="#1B1D21"></path>
            <path d="M495.8,354.5 C495.4,354.5 494.8,354.9 494.8,354 C495,353.1 495.3,352.3 495.9,351.7 C496.2,352.4 496.3,353.2 496.1,354 L495.8,354.5 Z" id="Path" fill="#1B1D21"></path>
            <path d="M506.3,158.1 C508.1,156.8 510.4,156.2 512.6,156.7 C511.5,157.6 510.2,156.6 509.2,157.2 C508.5,157.7 507.4,158.1 506.3,158.1 L506.3,158.1 Z" id="Path" fill="#1B1D21"></path>
            <path d="M506.3,158 C506.1,158.6 505.6,158.8 504.8,158.9 C505,157.9 505.6,157.8 506.3,158 L506.3,158 Z" id="Path" fill="#1B1D21"></path>
            <path d="M253.4,255.7 C253.3,254.8 253.7,254.5 254.4,254.1 C254.5,255 254.1,255.4 253.4,255.7 Z" id="Path" fill="#1B1D21"></path>
            <path d="M251.6,279.1 C251.4,278.7 250.9,278.1 251.2,278 C251.5,277.9 251.7,278.4 251.7,278.7 C251.8,278.9 251.7,279 251.6,279.1 Z" id="Path" fill="#1B1D21"></path>
            <path d="M330.8,22.3 C330.8,22.6 330.7,22.7 330.4,22.7 C330.3,22.7 330.1,22.6 330,22.6 C330.1,22.4 330.1,22.1 330.2,22 C330.3,21.9 330.7,22 330.8,22.3 Z" id="Path" fill="#1B1D21"></path>
            <path d="M525.4,106.8 C525.3,105.2 526.2,103.7 527.6,102.9 C528.8,102.1 530.4,102.1 531.6,102.9 C533,103.9 533.8,105.5 533.7,107.2 C533.6,108.5 532.3,109.4 531,109.8 C530,110.2 526.6,109.2 525.9,108.4 C525.5,107.9 525.3,107.3 525.4,106.8 Z" id="Path" fill="#1B1D21"></path>
            <path d="M350.6,321.8 C350.3,321.7 350.1,321.4 350.2,321.1 C350.2,321.1 350.2,321.1 350.2,321.1 C350.2,320.8 350.4,320.6 350.7,320.8 C350.9,321 351,321.2 351,321.4 C351,321.5 351,321.8 350.6,321.8 Z" id="Path" fill="#1B1D21"></path>
        </g>
    </g>
</svg>